<mxfile host="app.diagrams.net" modified="2023-01-04T09:46:04.601Z" agent="5.0 (X11; Linux x86_64) AppleWebKit/537.36 (KHTML, like Gecko) Chrome/108.0.0.0 Safari/537.36" etag="Ru3P_yc2AmlDG9ZtkLE_" version="20.8.0" type="github">
  <diagram id="6cRJa92gJ5BhuDF2xHI4" name="Pagina-1">
    <mxGraphModel dx="1674" dy="776" grid="1" gridSize="10" guides="1" tooltips="1" connect="1" arrows="1" fold="1" page="1" pageScale="1" pageWidth="2336" pageHeight="1654" math="0" shadow="0">
      <root>
        <mxCell id="0" />
        <mxCell id="1" parent="0" />
        <mxCell id="z5Y98NB-X7RU8rsms6oq-115" value="&lt;p style=&quot;line-height: 100%;&quot;&gt;works_at&lt;/p&gt;" style="strokeWidth=1;html=1;shape=mxgraph.flowchart.decision;whiteSpace=wrap;fontSize=14;shadow=0;sketch=0;" parent="1" vertex="1">
          <mxGeometry x="1380" y="590" width="90" height="90" as="geometry" />
        </mxCell>
        <mxCell id="z5Y98NB-X7RU8rsms6oq-119" value="&lt;b&gt;manager&lt;/b&gt;" style="rounded=0;whiteSpace=wrap;html=1;shadow=0;" parent="1" vertex="1">
          <mxGeometry x="735" y="640" width="120" height="60" as="geometry" />
        </mxCell>
        <mxCell id="D7ioK7h0sEVVlJe2rtMZ-2" value="&lt;b&gt;project_salaried&lt;/b&gt;" style="rounded=0;whiteSpace=wrap;html=1;shadow=0;" parent="1" vertex="1">
          <mxGeometry x="826" y="370" width="120" height="60" as="geometry" />
        </mxCell>
        <mxCell id="D7ioK7h0sEVVlJe2rtMZ-3" style="edgeStyle=none;shape=connector;rounded=0;orthogonalLoop=1;jettySize=auto;html=1;entryX=0.25;entryY=0;entryDx=0;entryDy=0;labelBackgroundColor=default;strokeColor=default;fontFamily=Helvetica;fontSize=14;fontColor=default;endArrow=none;exitX=1;exitY=0.5;exitDx=0;exitDy=0;startArrow=none;exitPerimeter=0;shadow=0;" parent="1" source="D7ioK7h0sEVVlJe2rtMZ-28" edge="1">
          <mxGeometry relative="1" as="geometry">
            <mxPoint x="1195" y="560" as="sourcePoint" />
            <mxPoint x="765" y="640" as="targetPoint" />
          </mxGeometry>
        </mxCell>
        <mxCell id="D7ioK7h0sEVVlJe2rtMZ-5" value="&lt;b&gt;junior&lt;/b&gt;" style="rounded=0;whiteSpace=wrap;html=1;shadow=0;" parent="1" vertex="1">
          <mxGeometry x="1210" y="640" width="120" height="60" as="geometry" />
        </mxCell>
        <mxCell id="D7ioK7h0sEVVlJe2rtMZ-6" value="&lt;b&gt;middle&lt;/b&gt;" style="rounded=0;whiteSpace=wrap;html=1;shadow=0;" parent="1" vertex="1">
          <mxGeometry x="889" y="640" width="120" height="60" as="geometry" />
        </mxCell>
        <mxCell id="D7ioK7h0sEVVlJe2rtMZ-7" value="&lt;b&gt;senior&lt;/b&gt;" style="rounded=0;whiteSpace=wrap;html=1;shadow=0;" parent="1" vertex="1">
          <mxGeometry x="1058" y="640" width="120" height="60" as="geometry" />
        </mxCell>
        <mxCell id="D7ioK7h0sEVVlJe2rtMZ-8" value="" style="endArrow=none;html=1;rounded=0;fontSize=14;entryX=0;entryY=1;entryDx=0;entryDy=0;exitX=0.5;exitY=0;exitDx=0;exitDy=0;shadow=0;" parent="1" source="D7ioK7h0sEVVlJe2rtMZ-2" target="D7ioK7h0sEVVlJe2rtMZ-11" edge="1">
          <mxGeometry relative="1" as="geometry">
            <mxPoint x="762" y="216.86000000000013" as="sourcePoint" />
            <mxPoint x="827.8578643762689" y="130.0021356237312" as="targetPoint" />
          </mxGeometry>
        </mxCell>
        <mxCell id="D7ioK7h0sEVVlJe2rtMZ-9" value="" style="shape=requiredInterface;html=1;verticalLabelPosition=bottom;sketch=0;rotation=120;shadow=0;" parent="1" vertex="1">
          <mxGeometry x="887" y="340" width="20" height="20" as="geometry" />
        </mxCell>
        <mxCell id="D7ioK7h0sEVVlJe2rtMZ-10" value="" style="shape=link;html=1;rounded=0;fontSize=14;exitX=0.5;exitY=1;exitDx=0;exitDy=0;entryX=0.5;entryY=0;entryDx=0;entryDy=0;shadow=0;" parent="1" source="D7ioK7h0sEVVlJe2rtMZ-112" target="D7ioK7h0sEVVlJe2rtMZ-11" edge="1">
          <mxGeometry relative="1" as="geometry">
            <mxPoint x="964" y="135" as="sourcePoint" />
            <mxPoint x="964" y="205" as="targetPoint" />
          </mxGeometry>
        </mxCell>
        <mxCell id="IIcQBuRmxiHjHD5Immbp-1" style="edgeStyle=none;shape=connector;rounded=0;orthogonalLoop=1;jettySize=auto;html=1;exitX=1;exitY=1;exitDx=0;exitDy=0;entryX=0.5;entryY=0;entryDx=0;entryDy=0;shadow=0;labelBackgroundColor=default;strokeColor=default;fontFamily=Helvetica;fontSize=14;fontColor=default;endArrow=none;" parent="1" source="D7ioK7h0sEVVlJe2rtMZ-11" target="D7ioK7h0sEVVlJe2rtMZ-54" edge="1">
          <mxGeometry relative="1" as="geometry" />
        </mxCell>
        <mxCell id="D7ioK7h0sEVVlJe2rtMZ-11" value="&lt;b&gt;&lt;font style=&quot;font-size: 18px;&quot;&gt;d&lt;/font&gt;&lt;/b&gt;" style="ellipse;whiteSpace=wrap;html=1;aspect=fixed;shadow=0;" parent="1" vertex="1">
          <mxGeometry x="946" y="220" width="40" height="40" as="geometry" />
        </mxCell>
        <mxCell id="D7ioK7h0sEVVlJe2rtMZ-12" value="" style="endArrow=none;html=1;rounded=0;fontSize=14;entryX=1;entryY=1;entryDx=0;entryDy=0;exitX=1;exitY=0.5;exitDx=0;exitDy=0;startArrow=none;exitPerimeter=0;shadow=0;" parent="1" source="D7ioK7h0sEVVlJe2rtMZ-52" target="D7ioK7h0sEVVlJe2rtMZ-15" edge="1">
          <mxGeometry relative="1" as="geometry">
            <mxPoint x="887" y="626.8599999999999" as="sourcePoint" />
            <mxPoint x="952.8578643762689" y="540.0021356237312" as="targetPoint" />
          </mxGeometry>
        </mxCell>
        <mxCell id="D7ioK7h0sEVVlJe2rtMZ-15" value="&lt;b&gt;&lt;font style=&quot;font-size: 18px;&quot;&gt;d&lt;/font&gt;&lt;/b&gt;" style="ellipse;whiteSpace=wrap;html=1;aspect=fixed;shadow=0;" parent="1" vertex="1">
          <mxGeometry x="1015" y="490" width="40" height="40" as="geometry" />
        </mxCell>
        <mxCell id="D7ioK7h0sEVVlJe2rtMZ-16" value="" style="endArrow=none;html=1;rounded=0;entryX=0.5;entryY=1;entryDx=0;entryDy=0;exitX=1;exitY=0.5;exitDx=0;exitDy=0;startArrow=none;exitPerimeter=0;shadow=0;" parent="1" source="D7ioK7h0sEVVlJe2rtMZ-29" target="D7ioK7h0sEVVlJe2rtMZ-15" edge="1">
          <mxGeometry width="50" height="50" relative="1" as="geometry">
            <mxPoint x="1047" y="510" as="sourcePoint" />
            <mxPoint x="1097" y="460" as="targetPoint" />
          </mxGeometry>
        </mxCell>
        <mxCell id="D7ioK7h0sEVVlJe2rtMZ-17" value="" style="endArrow=none;html=1;rounded=0;exitX=1;exitY=0.5;exitDx=0;exitDy=0;entryX=0.5;entryY=0;entryDx=0;entryDy=0;startArrow=none;exitPerimeter=0;shadow=0;" parent="1" source="D7ioK7h0sEVVlJe2rtMZ-27" target="D7ioK7h0sEVVlJe2rtMZ-6" edge="1">
          <mxGeometry width="50" height="50" relative="1" as="geometry">
            <mxPoint x="1047" y="510" as="sourcePoint" />
            <mxPoint x="1097" y="460" as="targetPoint" />
          </mxGeometry>
        </mxCell>
        <mxCell id="D7ioK7h0sEVVlJe2rtMZ-18" value="&lt;b&gt;scientific_manager&lt;/b&gt;" style="rounded=0;whiteSpace=wrap;html=1;shadow=0;" parent="1" vertex="1">
          <mxGeometry x="1130" y="867" width="120" height="60" as="geometry" />
        </mxCell>
        <mxCell id="D7ioK7h0sEVVlJe2rtMZ-19" value="&lt;b&gt;scientific_referent&lt;/b&gt;" style="rounded=0;whiteSpace=wrap;html=1;shadow=0;" parent="1" vertex="1">
          <mxGeometry x="987" y="867" width="120" height="60" as="geometry" />
        </mxCell>
        <mxCell id="D7ioK7h0sEVVlJe2rtMZ-20" value="&lt;span style=&quot;font-size: 18px;&quot;&gt;&lt;b&gt;o&lt;/b&gt;&lt;/span&gt;" style="ellipse;whiteSpace=wrap;html=1;aspect=fixed;shadow=0;" parent="1" vertex="1">
          <mxGeometry x="1098" y="760" width="40" height="40" as="geometry" />
        </mxCell>
        <mxCell id="D7ioK7h0sEVVlJe2rtMZ-21" value="" style="endArrow=none;html=1;rounded=0;fontSize=14;entryX=1;entryY=1;entryDx=0;entryDy=0;exitX=0.5;exitY=0;exitDx=0;exitDy=0;shadow=0;" parent="1" source="D7ioK7h0sEVVlJe2rtMZ-18" target="D7ioK7h0sEVVlJe2rtMZ-20" edge="1">
          <mxGeometry relative="1" as="geometry">
            <mxPoint x="995" y="790" as="sourcePoint" />
            <mxPoint x="1155" y="790" as="targetPoint" />
          </mxGeometry>
        </mxCell>
        <mxCell id="D7ioK7h0sEVVlJe2rtMZ-22" value="" style="endArrow=none;html=1;rounded=0;fontSize=14;exitX=0.5;exitY=0;exitDx=0;exitDy=0;shadow=0;" parent="1" source="D7ioK7h0sEVVlJe2rtMZ-19" target="D7ioK7h0sEVVlJe2rtMZ-20" edge="1">
          <mxGeometry relative="1" as="geometry">
            <mxPoint x="995" y="790" as="sourcePoint" />
            <mxPoint x="1155" y="790" as="targetPoint" />
          </mxGeometry>
        </mxCell>
        <mxCell id="D7ioK7h0sEVVlJe2rtMZ-23" value="" style="shape=requiredInterface;html=1;verticalLabelPosition=bottom;sketch=0;rotation=125;shadow=0;" parent="1" vertex="1">
          <mxGeometry x="1055" y="837" width="20" height="20" as="geometry" />
        </mxCell>
        <mxCell id="D7ioK7h0sEVVlJe2rtMZ-24" value="" style="shape=requiredInterface;html=1;verticalLabelPosition=bottom;sketch=0;rotation=50;shadow=0;" parent="1" vertex="1">
          <mxGeometry x="1161" y="832" width="20" height="20" as="geometry" />
        </mxCell>
        <mxCell id="D7ioK7h0sEVVlJe2rtMZ-25" value="" style="endArrow=none;html=1;rounded=0;entryX=0.5;entryY=0;entryDx=0;entryDy=0;exitX=0.5;exitY=1;exitDx=0;exitDy=0;shadow=0;" parent="1" source="D7ioK7h0sEVVlJe2rtMZ-7" target="D7ioK7h0sEVVlJe2rtMZ-20" edge="1">
          <mxGeometry width="50" height="50" relative="1" as="geometry">
            <mxPoint x="1107" y="510" as="sourcePoint" />
            <mxPoint x="1157" y="460" as="targetPoint" />
          </mxGeometry>
        </mxCell>
        <mxCell id="D7ioK7h0sEVVlJe2rtMZ-26" value="" style="shape=link;html=1;rounded=0;fontSize=14;entryX=0.5;entryY=0;entryDx=0;entryDy=0;exitX=0.5;exitY=1;exitDx=0;exitDy=0;shadow=0;" parent="1" source="D7ioK7h0sEVVlJe2rtMZ-54" target="D7ioK7h0sEVVlJe2rtMZ-15" edge="1">
          <mxGeometry relative="1" as="geometry">
            <mxPoint x="915" y="480" as="sourcePoint" />
            <mxPoint x="835" y="370" as="targetPoint" />
          </mxGeometry>
        </mxCell>
        <mxCell id="CzRCD9ak3yk9oqYSCaNl-2" style="edgeStyle=none;shape=connector;rounded=0;orthogonalLoop=1;jettySize=auto;html=1;exitX=0.5;exitY=1;exitDx=0;exitDy=0;exitPerimeter=0;entryX=1;entryY=0.5;entryDx=0;entryDy=0;labelBackgroundColor=default;strokeColor=default;fontFamily=Helvetica;fontSize=11;fontColor=default;endArrow=none;shadow=0;" parent="1" source="D7ioK7h0sEVVlJe2rtMZ-35" target="D7ioK7h0sEVVlJe2rtMZ-30" edge="1">
          <mxGeometry relative="1" as="geometry">
            <Array as="points">
              <mxPoint x="1750" y="1068" />
            </Array>
            <mxPoint x="1750" y="760" as="sourcePoint" />
          </mxGeometry>
        </mxCell>
        <mxCell id="LuezVCtjhw-IHx6_yhkn-9" value="(1, 1)" style="edgeLabel;html=1;align=center;verticalAlign=middle;resizable=0;points=[];fontStyle=1;shadow=0;" parent="CzRCD9ak3yk9oqYSCaNl-2" connectable="0" vertex="1">
          <mxGeometry x="0.9851" y="-1" relative="1" as="geometry">
            <mxPoint x="17" as="offset" />
          </mxGeometry>
        </mxCell>
        <mxCell id="LuezVCtjhw-IHx6_yhkn-12" value="N" style="edgeLabel;html=1;align=center;verticalAlign=middle;resizable=0;points=[];fontStyle=3;shadow=0;" parent="CzRCD9ak3yk9oqYSCaNl-2" connectable="0" vertex="1">
          <mxGeometry x="-0.9872" y="-2" relative="1" as="geometry">
            <mxPoint x="20" y="-3" as="offset" />
          </mxGeometry>
        </mxCell>
        <mxCell id="D7ioK7h0sEVVlJe2rtMZ-35" value="located" style="strokeWidth=1;html=1;shape=mxgraph.flowchart.decision;whiteSpace=wrap;fontSize=14;shadow=0;" parent="1" vertex="1">
          <mxGeometry x="1705" y="852" width="90" height="90" as="geometry" />
        </mxCell>
        <mxCell id="D7ioK7h0sEVVlJe2rtMZ-36" value="" style="endArrow=none;html=1;rounded=0;fontSize=14;exitX=0.5;exitY=1;exitDx=0;exitDy=0;shadow=0;entryX=0.5;entryY=0;entryDx=0;entryDy=0;entryPerimeter=0;" parent="1" source="D7ioK7h0sEVVlJe2rtMZ-34" target="D7ioK7h0sEVVlJe2rtMZ-35" edge="1">
          <mxGeometry relative="1" as="geometry">
            <mxPoint x="1992" y="927" as="sourcePoint" />
            <mxPoint x="1750" y="660" as="targetPoint" />
          </mxGeometry>
        </mxCell>
        <mxCell id="LuezVCtjhw-IHx6_yhkn-10" value="(1, N)" style="edgeLabel;html=1;align=center;verticalAlign=middle;resizable=0;points=[];fontStyle=1;shadow=0;" parent="D7ioK7h0sEVVlJe2rtMZ-36" connectable="0" vertex="1">
          <mxGeometry x="-0.8639" y="-1" relative="1" as="geometry">
            <mxPoint y="14" as="offset" />
          </mxGeometry>
        </mxCell>
        <mxCell id="LuezVCtjhw-IHx6_yhkn-11" value="1" style="edgeLabel;html=1;align=center;verticalAlign=middle;resizable=0;points=[];fontStyle=3;shadow=0;" parent="D7ioK7h0sEVVlJe2rtMZ-36" connectable="0" vertex="1">
          <mxGeometry x="0.8731" y="-1" relative="1" as="geometry">
            <mxPoint x="21" y="6" as="offset" />
          </mxGeometry>
        </mxCell>
        <mxCell id="D7ioK7h0sEVVlJe2rtMZ-43" value="have" style="strokeWidth=1;html=1;shape=mxgraph.flowchart.decision;whiteSpace=wrap;fontSize=14;shadow=0;" parent="1" vertex="1">
          <mxGeometry x="1319.53" y="1395" width="90" height="90" as="geometry" />
        </mxCell>
        <mxCell id="D7ioK7h0sEVVlJe2rtMZ-44" value="" style="endArrow=none;html=1;rounded=0;exitX=0;exitY=0.5;exitDx=0;exitDy=0;exitPerimeter=0;entryX=1;entryY=0.5;entryDx=0;entryDy=0;shadow=0;" parent="1" source="D7ioK7h0sEVVlJe2rtMZ-43" target="D7ioK7h0sEVVlJe2rtMZ-172" edge="1">
          <mxGeometry width="50" height="50" relative="1" as="geometry">
            <mxPoint x="1124.53" y="950" as="sourcePoint" />
            <mxPoint x="1004.53" y="1215" as="targetPoint" />
          </mxGeometry>
        </mxCell>
        <mxCell id="Er4nDUkJ65wStGIsIG78-10" value="(1, 1)" style="edgeLabel;html=1;align=center;verticalAlign=middle;resizable=0;points=[];fontStyle=1;shadow=0;" parent="D7ioK7h0sEVVlJe2rtMZ-44" connectable="0" vertex="1">
          <mxGeometry x="0.5579" y="1" relative="1" as="geometry">
            <mxPoint y="-1" as="offset" />
          </mxGeometry>
        </mxCell>
        <mxCell id="Er4nDUkJ65wStGIsIG78-12" value="N" style="edgeLabel;html=1;align=center;verticalAlign=middle;resizable=0;points=[];fontStyle=3;shadow=0;" parent="D7ioK7h0sEVVlJe2rtMZ-44" connectable="0" vertex="1">
          <mxGeometry x="-0.7476" relative="1" as="geometry">
            <mxPoint x="23" y="-15" as="offset" />
          </mxGeometry>
        </mxCell>
        <mxCell id="D7ioK7h0sEVVlJe2rtMZ-45" value="" style="endArrow=none;html=1;rounded=0;exitX=0.75;exitY=1;exitDx=0;exitDy=0;entryX=1;entryY=0.5;entryDx=0;entryDy=0;entryPerimeter=0;shadow=0;" parent="1" source="D7ioK7h0sEVVlJe2rtMZ-30" target="D7ioK7h0sEVVlJe2rtMZ-43" edge="1">
          <mxGeometry width="50" height="50" relative="1" as="geometry">
            <mxPoint x="1105" y="950" as="sourcePoint" />
            <mxPoint x="1155" y="900" as="targetPoint" />
            <Array as="points">
              <mxPoint x="1620" y="1440" />
            </Array>
          </mxGeometry>
        </mxCell>
        <mxCell id="Er4nDUkJ65wStGIsIG78-9" value="(0, N)" style="edgeLabel;html=1;align=center;verticalAlign=middle;resizable=0;points=[];fontStyle=1;shadow=0;" parent="D7ioK7h0sEVVlJe2rtMZ-45" connectable="0" vertex="1">
          <mxGeometry x="-0.8261" y="1" relative="1" as="geometry">
            <mxPoint x="-2" y="-2" as="offset" />
          </mxGeometry>
        </mxCell>
        <mxCell id="Er4nDUkJ65wStGIsIG78-11" value="1" style="edgeLabel;html=1;align=center;verticalAlign=middle;resizable=0;points=[];fontStyle=3;shadow=0;" parent="D7ioK7h0sEVVlJe2rtMZ-45" connectable="0" vertex="1">
          <mxGeometry x="0.8137" y="-2" relative="1" as="geometry">
            <mxPoint x="-61" y="-18" as="offset" />
          </mxGeometry>
        </mxCell>
        <mxCell id="D7ioK7h0sEVVlJe2rtMZ-46" value="" style="endArrow=none;html=1;rounded=0;exitX=0;exitY=0.5;exitDx=0;exitDy=0;entryX=0;entryY=0.5;entryDx=0;entryDy=0;entryPerimeter=0;shadow=0;" parent="1" source="D7ioK7h0sEVVlJe2rtMZ-172" target="D7ioK7h0sEVVlJe2rtMZ-41" edge="1">
          <mxGeometry width="50" height="50" relative="1" as="geometry">
            <mxPoint x="1124.53" y="1215" as="sourcePoint" />
            <mxPoint x="1174.53" y="900" as="targetPoint" />
          </mxGeometry>
        </mxCell>
        <mxCell id="Er4nDUkJ65wStGIsIG78-14" value="(0, 1)" style="edgeLabel;html=1;align=center;verticalAlign=middle;resizable=0;points=[];fontStyle=1;shadow=0;" parent="D7ioK7h0sEVVlJe2rtMZ-46" connectable="0" vertex="1">
          <mxGeometry x="-0.7232" relative="1" as="geometry">
            <mxPoint y="-1" as="offset" />
          </mxGeometry>
        </mxCell>
        <mxCell id="D7ioK7h0sEVVlJe2rtMZ-54" value="&lt;b&gt;base_emp&lt;/b&gt;" style="rounded=0;whiteSpace=wrap;html=1;shadow=0;" parent="1" vertex="1">
          <mxGeometry x="975" y="370" width="120" height="60" as="geometry" />
        </mxCell>
        <mxCell id="D7ioK7h0sEVVlJe2rtMZ-62" value="" style="endArrow=none;html=1;rounded=0;exitX=0;exitY=0.5;exitDx=0;exitDy=0;exitPerimeter=0;entryX=0.419;entryY=1.009;entryDx=0;entryDy=0;shadow=0;entryPerimeter=0;" parent="1" source="D7ioK7h0sEVVlJe2rtMZ-41" target="D7ioK7h0sEVVlJe2rtMZ-212" edge="1">
          <mxGeometry width="50" height="50" relative="1" as="geometry">
            <mxPoint x="1515" y="905" as="sourcePoint" />
            <mxPoint x="1540" y="1170" as="targetPoint" />
            <Array as="points">
              <mxPoint x="594" y="1440" />
            </Array>
          </mxGeometry>
        </mxCell>
        <mxCell id="Er4nDUkJ65wStGIsIG78-13" value="(0, N)" style="edgeLabel;html=1;align=center;verticalAlign=middle;resizable=0;points=[];fontStyle=1;shadow=0;" parent="D7ioK7h0sEVVlJe2rtMZ-62" connectable="0" vertex="1">
          <mxGeometry x="0.9206" y="1" relative="1" as="geometry">
            <mxPoint x="4" y="8" as="offset" />
          </mxGeometry>
        </mxCell>
        <mxCell id="Er4nDUkJ65wStGIsIG78-15" value="1" style="edgeLabel;html=1;align=center;verticalAlign=middle;resizable=0;points=[];fontStyle=3;shadow=0;" parent="D7ioK7h0sEVVlJe2rtMZ-62" connectable="0" vertex="1">
          <mxGeometry x="-0.8836" relative="1" as="geometry">
            <mxPoint x="29" y="-30" as="offset" />
          </mxGeometry>
        </mxCell>
        <mxCell id="D7ioK7h0sEVVlJe2rtMZ-86" value="take_part" style="strokeWidth=1;html=1;shape=mxgraph.flowchart.decision;whiteSpace=wrap;fontSize=14;shadow=0;" parent="1" vertex="1">
          <mxGeometry x="999" y="1037.5" width="90" height="90" as="geometry" />
        </mxCell>
        <mxCell id="D7ioK7h0sEVVlJe2rtMZ-87" value="" style="endArrow=none;html=1;rounded=0;exitX=0;exitY=0.75;exitDx=0;exitDy=0;entryX=1;entryY=0.5;entryDx=0;entryDy=0;entryPerimeter=0;shadow=0;" parent="1" source="D7ioK7h0sEVVlJe2rtMZ-30" target="D7ioK7h0sEVVlJe2rtMZ-86" edge="1">
          <mxGeometry width="50" height="50" relative="1" as="geometry">
            <mxPoint x="765" y="1090" as="sourcePoint" />
            <mxPoint x="1340" y="1030" as="targetPoint" />
          </mxGeometry>
        </mxCell>
        <mxCell id="Er4nDUkJ65wStGIsIG78-27" value="(0, N)" style="edgeLabel;html=1;align=center;verticalAlign=middle;resizable=0;points=[];shadow=0;" parent="D7ioK7h0sEVVlJe2rtMZ-87" connectable="0" vertex="1">
          <mxGeometry x="-0.8568" y="2" relative="1" as="geometry">
            <mxPoint x="2" y="-4" as="offset" />
          </mxGeometry>
        </mxCell>
        <mxCell id="Er4nDUkJ65wStGIsIG78-29" value="N" style="edgeLabel;html=1;align=center;verticalAlign=middle;resizable=0;points=[];fontStyle=3;shadow=0;" parent="D7ioK7h0sEVVlJe2rtMZ-87" connectable="0" vertex="1">
          <mxGeometry x="0.8335" relative="1" as="geometry">
            <mxPoint x="-36" y="17" as="offset" />
          </mxGeometry>
        </mxCell>
        <mxCell id="D7ioK7h0sEVVlJe2rtMZ-88" value="" style="endArrow=none;html=1;rounded=0;exitX=0;exitY=0.5;exitDx=0;exitDy=0;exitPerimeter=0;entryX=1;entryY=0.5;entryDx=0;entryDy=0;shadow=0;" parent="1" source="D7ioK7h0sEVVlJe2rtMZ-86" target="D7ioK7h0sEVVlJe2rtMZ-212" edge="1">
          <mxGeometry width="50" height="50" relative="1" as="geometry">
            <mxPoint x="1310" y="1225" as="sourcePoint" />
            <mxPoint x="1430" y="1110" as="targetPoint" />
          </mxGeometry>
        </mxCell>
        <mxCell id="Er4nDUkJ65wStGIsIG78-26" value="(1, 3)" style="edgeLabel;html=1;align=center;verticalAlign=middle;resizable=0;points=[];shadow=0;" parent="D7ioK7h0sEVVlJe2rtMZ-88" connectable="0" vertex="1">
          <mxGeometry x="0.8075" y="2" relative="1" as="geometry">
            <mxPoint y="-3" as="offset" />
          </mxGeometry>
        </mxCell>
        <mxCell id="Er4nDUkJ65wStGIsIG78-28" value="N" style="edgeLabel;html=1;align=center;verticalAlign=middle;resizable=0;points=[];fontStyle=3;shadow=0;" parent="D7ioK7h0sEVVlJe2rtMZ-88" connectable="0" vertex="1">
          <mxGeometry x="-0.859" relative="1" as="geometry">
            <mxPoint x="25" y="20" as="offset" />
          </mxGeometry>
        </mxCell>
        <mxCell id="D7ioK7h0sEVVlJe2rtMZ-89" value="manage" style="strokeWidth=1;html=1;shape=mxgraph.flowchart.decision;whiteSpace=wrap;fontSize=14;shadow=0;" parent="1" vertex="1">
          <mxGeometry x="1545" y="852" width="90" height="90" as="geometry" />
        </mxCell>
        <mxCell id="D7ioK7h0sEVVlJe2rtMZ-90" value="" style="endArrow=none;html=1;rounded=0;exitX=0.5;exitY=0;exitDx=0;exitDy=0;entryX=0.5;entryY=1;entryDx=0;entryDy=0;entryPerimeter=0;shadow=0;" parent="1" source="D7ioK7h0sEVVlJe2rtMZ-30" target="D7ioK7h0sEVVlJe2rtMZ-89" edge="1">
          <mxGeometry width="50" height="50" relative="1" as="geometry">
            <mxPoint x="660" y="1030" as="sourcePoint" />
            <mxPoint x="735" y="900" as="targetPoint" />
          </mxGeometry>
        </mxCell>
        <mxCell id="Er4nDUkJ65wStGIsIG78-6" value="(1, 1)" style="edgeLabel;html=1;align=center;verticalAlign=middle;resizable=0;points=[];fontStyle=1;shadow=0;" parent="D7ioK7h0sEVVlJe2rtMZ-90" connectable="0" vertex="1">
          <mxGeometry x="-0.7709" y="-1" relative="1" as="geometry">
            <mxPoint x="-2" as="offset" />
          </mxGeometry>
        </mxCell>
        <mxCell id="Er4nDUkJ65wStGIsIG78-8" value="N" style="edgeLabel;html=1;align=center;verticalAlign=middle;resizable=0;points=[];fontStyle=3;shadow=0;" parent="D7ioK7h0sEVVlJe2rtMZ-90" connectable="0" vertex="1">
          <mxGeometry x="0.7927" y="1" relative="1" as="geometry">
            <mxPoint x="16" y="-13" as="offset" />
          </mxGeometry>
        </mxCell>
        <mxCell id="D7ioK7h0sEVVlJe2rtMZ-91" value="" style="endArrow=none;html=1;rounded=0;exitX=0;exitY=0.5;exitDx=0;exitDy=0;exitPerimeter=0;entryX=1;entryY=0.5;entryDx=0;entryDy=0;shadow=0;" parent="1" source="D7ioK7h0sEVVlJe2rtMZ-89" target="D7ioK7h0sEVVlJe2rtMZ-18" edge="1">
          <mxGeometry width="50" height="50" relative="1" as="geometry">
            <mxPoint x="845" y="960" as="sourcePoint" />
            <mxPoint x="975" y="845" as="targetPoint" />
          </mxGeometry>
        </mxCell>
        <mxCell id="Er4nDUkJ65wStGIsIG78-7" value="1" style="edgeLabel;html=1;align=center;verticalAlign=middle;resizable=0;points=[];fontStyle=3;shadow=0;" parent="D7ioK7h0sEVVlJe2rtMZ-91" connectable="0" vertex="1">
          <mxGeometry x="-0.8635" relative="1" as="geometry">
            <mxPoint x="13" y="-17" as="offset" />
          </mxGeometry>
        </mxCell>
        <mxCell id="yX_2Eo4nJ1iS-HtvHghs-4" value="(1, N)" style="edgeLabel;html=1;align=center;verticalAlign=middle;resizable=0;points=[];fontStyle=1;shadow=0;" parent="D7ioK7h0sEVVlJe2rtMZ-91" connectable="0" vertex="1">
          <mxGeometry x="0.7358" y="2" relative="1" as="geometry">
            <mxPoint x="-15" y="-2" as="offset" />
          </mxGeometry>
        </mxCell>
        <mxCell id="D7ioK7h0sEVVlJe2rtMZ-92" value="supervise" style="strokeWidth=1;html=1;shape=mxgraph.flowchart.decision;whiteSpace=wrap;fontSize=14;shadow=0;" parent="1" vertex="1">
          <mxGeometry x="542.5" y="770" width="87.5" height="87" as="geometry" />
        </mxCell>
        <mxCell id="D7ioK7h0sEVVlJe2rtMZ-93" value="" style="endArrow=none;html=1;rounded=0;exitX=0.5;exitY=0;exitDx=0;exitDy=0;exitPerimeter=0;entryX=0;entryY=0.5;entryDx=0;entryDy=0;shadow=0;" parent="1" source="D7ioK7h0sEVVlJe2rtMZ-92" edge="1">
          <mxGeometry width="50" height="50" relative="1" as="geometry">
            <mxPoint x="1210" y="930" as="sourcePoint" />
            <mxPoint x="735" y="670" as="targetPoint" />
            <Array as="points">
              <mxPoint x="585" y="670" />
            </Array>
          </mxGeometry>
        </mxCell>
        <mxCell id="Er4nDUkJ65wStGIsIG78-3" value="1" style="edgeLabel;html=1;align=center;verticalAlign=middle;resizable=0;points=[];container=1;fontStyle=3;shadow=0;" parent="D7ioK7h0sEVVlJe2rtMZ-93" connectable="0" vertex="1">
          <mxGeometry x="-0.6667" y="-1" relative="1" as="geometry">
            <mxPoint x="17" y="36" as="offset" />
          </mxGeometry>
        </mxCell>
        <mxCell id="yX_2Eo4nJ1iS-HtvHghs-3" value="(0, N)" style="edgeLabel;html=1;align=center;verticalAlign=middle;resizable=0;points=[];fontStyle=1;shadow=0;" parent="D7ioK7h0sEVVlJe2rtMZ-93" connectable="0" vertex="1">
          <mxGeometry x="0.7977" y="-3" relative="1" as="geometry">
            <mxPoint y="-3" as="offset" />
          </mxGeometry>
        </mxCell>
        <mxCell id="D7ioK7h0sEVVlJe2rtMZ-94" value="" style="endArrow=none;html=1;rounded=0;entryX=0.5;entryY=1;entryDx=0;entryDy=0;entryPerimeter=0;exitX=0.373;exitY=0.004;exitDx=0;exitDy=0;exitPerimeter=0;shadow=0;" parent="1" source="D7ioK7h0sEVVlJe2rtMZ-212" target="D7ioK7h0sEVVlJe2rtMZ-92" edge="1">
          <mxGeometry width="50" height="50" relative="1" as="geometry">
            <mxPoint x="1710" y="1110" as="sourcePoint" />
            <mxPoint x="1260" y="880" as="targetPoint" />
            <Array as="points" />
          </mxGeometry>
        </mxCell>
        <mxCell id="Er4nDUkJ65wStGIsIG78-2" value="(1, 1)" style="edgeLabel;html=1;align=center;verticalAlign=middle;resizable=0;points=[];fontStyle=1;shadow=0;" parent="D7ioK7h0sEVVlJe2rtMZ-94" connectable="0" vertex="1">
          <mxGeometry x="-0.7752" y="-2" relative="1" as="geometry">
            <mxPoint x="-3" y="-15" as="offset" />
          </mxGeometry>
        </mxCell>
        <mxCell id="Er4nDUkJ65wStGIsIG78-4" value="N" style="edgeLabel;html=1;align=center;verticalAlign=middle;resizable=0;points=[];fontStyle=3;shadow=0;" parent="D7ioK7h0sEVVlJe2rtMZ-94" connectable="0" vertex="1">
          <mxGeometry x="0.8848" y="2" relative="1" as="geometry">
            <mxPoint x="19" y="-10" as="offset" />
          </mxGeometry>
        </mxCell>
        <mxCell id="D7ioK7h0sEVVlJe2rtMZ-97" value="" style="endArrow=none;html=1;rounded=0;exitX=0.249;exitY=0.747;exitDx=0;exitDy=0;exitPerimeter=0;entryX=0.5;entryY=0;entryDx=0;entryDy=0;shadow=0;" parent="1" source="D7ioK7h0sEVVlJe2rtMZ-96" target="D7ioK7h0sEVVlJe2rtMZ-212" edge="1">
          <mxGeometry width="50" height="50" relative="1" as="geometry">
            <mxPoint x="1430" y="780" as="sourcePoint" />
            <mxPoint x="1580" y="960" as="targetPoint" />
          </mxGeometry>
        </mxCell>
        <mxCell id="Er4nDUkJ65wStGIsIG78-23" value="(1, 1)" style="edgeLabel;html=1;align=center;verticalAlign=middle;resizable=0;points=[];fontStyle=1;shadow=0;" parent="D7ioK7h0sEVVlJe2rtMZ-97" connectable="0" vertex="1">
          <mxGeometry x="0.6149" relative="1" as="geometry">
            <mxPoint x="-14" y="12" as="offset" />
          </mxGeometry>
        </mxCell>
        <mxCell id="Er4nDUkJ65wStGIsIG78-25" value="N" style="edgeLabel;html=1;align=center;verticalAlign=middle;resizable=0;points=[];fontStyle=3;shadow=0;" parent="D7ioK7h0sEVVlJe2rtMZ-97" connectable="0" vertex="1">
          <mxGeometry x="-0.8161" y="-1" relative="1" as="geometry">
            <mxPoint x="15" y="11" as="offset" />
          </mxGeometry>
        </mxCell>
        <mxCell id="D7ioK7h0sEVVlJe2rtMZ-96" value="manage" style="strokeWidth=1;html=1;shape=mxgraph.flowchart.decision;whiteSpace=wrap;fontSize=14;shadow=0;" parent="1" vertex="1">
          <mxGeometry x="725" y="857" width="80" height="80" as="geometry" />
        </mxCell>
        <mxCell id="D7ioK7h0sEVVlJe2rtMZ-99" value="" style="endArrow=none;html=1;rounded=0;entryX=0;entryY=0.5;entryDx=0;entryDy=0;exitX=1;exitY=0.5;exitDx=0;exitDy=0;exitPerimeter=0;shadow=0;" parent="1" source="D7ioK7h0sEVVlJe2rtMZ-96" target="D7ioK7h0sEVVlJe2rtMZ-19" edge="1">
          <mxGeometry width="50" height="50" relative="1" as="geometry">
            <mxPoint x="1370" y="730" as="sourcePoint" />
            <mxPoint x="1420" y="680" as="targetPoint" />
          </mxGeometry>
        </mxCell>
        <mxCell id="Er4nDUkJ65wStGIsIG78-22" value="(1, N)" style="edgeLabel;html=1;align=center;verticalAlign=middle;resizable=0;points=[];fontStyle=1;shadow=0;" parent="D7ioK7h0sEVVlJe2rtMZ-99" connectable="0" vertex="1">
          <mxGeometry x="0.8083" y="-1" relative="1" as="geometry">
            <mxPoint x="-13" y="-2" as="offset" />
          </mxGeometry>
        </mxCell>
        <mxCell id="Er4nDUkJ65wStGIsIG78-24" value="1" style="edgeLabel;html=1;align=center;verticalAlign=middle;resizable=0;points=[];fontStyle=3;shadow=0;" parent="D7ioK7h0sEVVlJe2rtMZ-99" connectable="0" vertex="1">
          <mxGeometry x="-0.7917" y="-1" relative="1" as="geometry">
            <mxPoint x="8" y="-14" as="offset" />
          </mxGeometry>
        </mxCell>
        <mxCell id="D7ioK7h0sEVVlJe2rtMZ-102" value="" style="endArrow=none;html=1;rounded=0;entryX=0;entryY=0.5;entryDx=0;entryDy=0;exitX=0.5;exitY=0;exitDx=0;exitDy=0;exitPerimeter=0;shadow=0;" parent="1" source="D7ioK7h0sEVVlJe2rtMZ-159" target="D7ioK7h0sEVVlJe2rtMZ-2" edge="1">
          <mxGeometry width="50" height="50" relative="1" as="geometry">
            <mxPoint x="425" y="590" as="sourcePoint" />
            <mxPoint x="1000" y="780" as="targetPoint" />
            <Array as="points">
              <mxPoint x="425" y="400" />
            </Array>
          </mxGeometry>
        </mxCell>
        <mxCell id="BbfmhJNj7TVekU5dso0v-3" value="N" style="edgeLabel;html=1;align=center;verticalAlign=middle;resizable=0;points=[];fontStyle=3;shadow=0;" parent="D7ioK7h0sEVVlJe2rtMZ-102" connectable="0" vertex="1">
          <mxGeometry x="-0.9667" y="-1" relative="1" as="geometry">
            <mxPoint x="24" y="10" as="offset" />
          </mxGeometry>
        </mxCell>
        <mxCell id="qGWu93D-Jkog01gnPVOI-1" value="(1, N)" style="edgeLabel;html=1;align=center;verticalAlign=middle;resizable=0;points=[];fontStyle=1;shadow=0;" parent="D7ioK7h0sEVVlJe2rtMZ-102" connectable="0" vertex="1">
          <mxGeometry x="0.9362" y="1" relative="1" as="geometry">
            <mxPoint x="-37" as="offset" />
          </mxGeometry>
        </mxCell>
        <mxCell id="D7ioK7h0sEVVlJe2rtMZ-103" value="" style="endArrow=none;html=1;rounded=0;exitX=0;exitY=0.5;exitDx=0;exitDy=0;entryX=0.5;entryY=1;entryDx=0;entryDy=0;entryPerimeter=0;shadow=0;" parent="1" source="D7ioK7h0sEVVlJe2rtMZ-212" target="D7ioK7h0sEVVlJe2rtMZ-159" edge="1">
          <mxGeometry width="50" height="50" relative="1" as="geometry">
            <mxPoint x="1550" y="1110" as="sourcePoint" />
            <mxPoint x="420" y="690" as="targetPoint" />
            <Array as="points">
              <mxPoint x="425" y="1083" />
            </Array>
          </mxGeometry>
        </mxCell>
        <mxCell id="BbfmhJNj7TVekU5dso0v-1" value="(0, N)" style="edgeLabel;html=1;align=center;verticalAlign=middle;resizable=0;points=[];fontStyle=1;shadow=0;" parent="D7ioK7h0sEVVlJe2rtMZ-103" connectable="0" vertex="1">
          <mxGeometry x="-0.987" y="-1" relative="1" as="geometry">
            <mxPoint x="-19" as="offset" />
          </mxGeometry>
        </mxCell>
        <mxCell id="BbfmhJNj7TVekU5dso0v-4" value="N" style="edgeLabel;html=1;align=center;verticalAlign=middle;resizable=0;points=[];fontStyle=3;shadow=0;" parent="D7ioK7h0sEVVlJe2rtMZ-103" connectable="0" vertex="1">
          <mxGeometry x="0.9858" y="-1" relative="1" as="geometry">
            <mxPoint x="14" y="-4" as="offset" />
          </mxGeometry>
        </mxCell>
        <mxCell id="D7ioK7h0sEVVlJe2rtMZ-105" style="edgeStyle=none;shape=connector;rounded=0;orthogonalLoop=1;jettySize=auto;html=1;exitX=0.25;exitY=1;exitDx=0;exitDy=0;labelBackgroundColor=default;strokeColor=default;fontFamily=Helvetica;fontSize=11;fontColor=default;startArrow=none;startFill=0;endArrow=oval;endFill=0;startSize=10;endSize=10;shadow=0;" parent="1" source="D7ioK7h0sEVVlJe2rtMZ-54" edge="1">
          <mxGeometry relative="1" as="geometry">
            <mxPoint x="980" y="460" as="targetPoint" />
            <mxPoint x="1170" y="280" as="sourcePoint" />
          </mxGeometry>
        </mxCell>
        <mxCell id="D7ioK7h0sEVVlJe2rtMZ-106" style="edgeStyle=none;shape=connector;rounded=0;orthogonalLoop=1;jettySize=auto;html=1;exitX=0;exitY=0.25;exitDx=0;exitDy=0;entryX=0.544;entryY=0.966;entryDx=0;entryDy=0;entryPerimeter=0;labelBackgroundColor=default;strokeColor=default;fontFamily=Helvetica;fontSize=11;fontColor=default;startArrow=none;startFill=0;endArrow=oval;endFill=0;startSize=10;endSize=10;shadow=0;" parent="1" source="D7ioK7h0sEVVlJe2rtMZ-112" target="D7ioK7h0sEVVlJe2rtMZ-117" edge="1">
          <mxGeometry relative="1" as="geometry" />
        </mxCell>
        <mxCell id="D7ioK7h0sEVVlJe2rtMZ-107" style="edgeStyle=none;shape=connector;rounded=0;orthogonalLoop=1;jettySize=auto;html=1;exitX=0.25;exitY=0;exitDx=0;exitDy=0;entryX=0.594;entryY=0.966;entryDx=0;entryDy=0;entryPerimeter=0;labelBackgroundColor=default;strokeColor=default;fontFamily=Helvetica;fontSize=11;fontColor=default;startArrow=none;startFill=0;endArrow=oval;endFill=0;startSize=10;endSize=10;shadow=0;" parent="1" source="D7ioK7h0sEVVlJe2rtMZ-112" target="D7ioK7h0sEVVlJe2rtMZ-118" edge="1">
          <mxGeometry relative="1" as="geometry" />
        </mxCell>
        <mxCell id="D7ioK7h0sEVVlJe2rtMZ-108" style="edgeStyle=none;shape=connector;rounded=0;orthogonalLoop=1;jettySize=auto;html=1;exitX=1;exitY=0.75;exitDx=0;exitDy=0;labelBackgroundColor=default;strokeColor=default;fontFamily=Helvetica;fontSize=11;fontColor=default;startArrow=none;startFill=0;endArrow=oval;endFill=0;startSize=10;endSize=10;shadow=0;" parent="1" source="D7ioK7h0sEVVlJe2rtMZ-112" edge="1">
          <mxGeometry relative="1" as="geometry">
            <mxPoint x="1067" y="150" as="targetPoint" />
          </mxGeometry>
        </mxCell>
        <mxCell id="D7ioK7h0sEVVlJe2rtMZ-109" style="edgeStyle=none;shape=connector;rounded=0;orthogonalLoop=1;jettySize=auto;html=1;exitX=1;exitY=0.25;exitDx=0;exitDy=0;labelBackgroundColor=default;strokeColor=default;fontFamily=Helvetica;fontSize=11;fontColor=default;startArrow=none;startFill=0;endArrow=oval;endFill=0;startSize=10;endSize=10;shadow=0;" parent="1" source="D7ioK7h0sEVVlJe2rtMZ-112" edge="1">
          <mxGeometry relative="1" as="geometry">
            <mxPoint x="1077" y="100" as="targetPoint" />
          </mxGeometry>
        </mxCell>
        <mxCell id="D7ioK7h0sEVVlJe2rtMZ-110" style="edgeStyle=none;shape=connector;rounded=0;orthogonalLoop=1;jettySize=auto;html=1;exitX=0;exitY=0.75;exitDx=0;exitDy=0;entryX=0.993;entryY=0.785;entryDx=0;entryDy=0;entryPerimeter=0;labelBackgroundColor=default;strokeColor=default;fontFamily=Helvetica;fontSize=11;fontColor=default;startArrow=none;startFill=0;endArrow=oval;endFill=0;startSize=10;endSize=10;shadow=0;" parent="1" source="D7ioK7h0sEVVlJe2rtMZ-112" target="D7ioK7h0sEVVlJe2rtMZ-122" edge="1">
          <mxGeometry relative="1" as="geometry" />
        </mxCell>
        <mxCell id="D7ioK7h0sEVVlJe2rtMZ-112" value="&lt;b&gt;employee&lt;/b&gt;" style="rounded=0;whiteSpace=wrap;html=1;shadow=0;" parent="1" vertex="1">
          <mxGeometry x="906" y="105" width="120" height="60" as="geometry" />
        </mxCell>
        <mxCell id="D7ioK7h0sEVVlJe2rtMZ-117" value="CF" style="text;html=1;align=center;verticalAlign=middle;resizable=0;points=[];autosize=1;strokeColor=none;fillColor=none;fontSize=11;fontFamily=Helvetica;fontColor=default;shadow=0;" parent="1" vertex="1">
          <mxGeometry x="842" y="60" width="40" height="30" as="geometry" />
        </mxCell>
        <mxCell id="D7ioK7h0sEVVlJe2rtMZ-118" value="first_name" style="text;html=1;align=center;verticalAlign=middle;resizable=0;points=[];autosize=1;strokeColor=none;fillColor=none;fontSize=11;fontFamily=Helvetica;fontColor=default;shadow=0;" parent="1" vertex="1">
          <mxGeometry x="892" y="30" width="70" height="30" as="geometry" />
        </mxCell>
        <mxCell id="D7ioK7h0sEVVlJe2rtMZ-119" value="last_name" style="text;html=1;align=center;verticalAlign=middle;resizable=0;points=[];autosize=1;strokeColor=none;fillColor=none;fontSize=11;fontFamily=Helvetica;fontColor=default;shadow=0;" parent="1" vertex="1">
          <mxGeometry x="962" y="30" width="70" height="30" as="geometry" />
        </mxCell>
        <mxCell id="D7ioK7h0sEVVlJe2rtMZ-120" value="birth_date" style="text;html=1;align=center;verticalAlign=middle;resizable=0;points=[];autosize=1;strokeColor=none;fillColor=none;fontSize=11;fontFamily=Helvetica;fontColor=default;shadow=0;" parent="1" vertex="1">
          <mxGeometry x="1032" y="120" width="70" height="30" as="geometry" />
        </mxCell>
        <mxCell id="D7ioK7h0sEVVlJe2rtMZ-122" value="passw" style="text;html=1;align=center;verticalAlign=middle;resizable=0;points=[];autosize=1;strokeColor=none;fillColor=none;fontSize=11;fontFamily=Helvetica;fontColor=default;shadow=0;" parent="1" vertex="1">
          <mxGeometry x="802" y="120" width="50" height="30" as="geometry" />
        </mxCell>
        <mxCell id="D7ioK7h0sEVVlJe2rtMZ-123" value="email" style="text;html=1;align=center;verticalAlign=middle;resizable=0;points=[];autosize=1;strokeColor=none;fillColor=none;fontSize=11;fontFamily=Helvetica;fontColor=default;shadow=0;" parent="1" vertex="1">
          <mxGeometry x="1052" y="70" width="50" height="30" as="geometry" />
        </mxCell>
        <mxCell id="D7ioK7h0sEVVlJe2rtMZ-125" style="edgeStyle=none;shape=connector;rounded=0;orthogonalLoop=1;jettySize=auto;html=1;labelBackgroundColor=default;strokeColor=default;fontFamily=Helvetica;fontSize=11;fontColor=default;startArrow=none;startFill=0;endArrow=oval;endFill=0;startSize=10;endSize=10;exitX=0.75;exitY=0;exitDx=0;exitDy=0;shadow=0;" parent="1" source="D7ioK7h0sEVVlJe2rtMZ-112" edge="1">
          <mxGeometry relative="1" as="geometry">
            <mxPoint x="994" y="60" as="targetPoint" />
            <mxPoint x="1047" y="260" as="sourcePoint" />
          </mxGeometry>
        </mxCell>
        <mxCell id="D7ioK7h0sEVVlJe2rtMZ-126" style="edgeStyle=none;shape=connector;rounded=0;orthogonalLoop=1;jettySize=auto;html=1;exitX=0.75;exitY=0;exitDx=0;exitDy=0;labelBackgroundColor=default;strokeColor=default;fontFamily=Helvetica;fontSize=11;fontColor=default;startArrow=none;startFill=0;endArrow=oval;endFill=0;startSize=10;endSize=10;shadow=0;" parent="1" source="D7ioK7h0sEVVlJe2rtMZ-54" edge="1">
          <mxGeometry relative="1" as="geometry">
            <mxPoint x="1090" y="330" as="targetPoint" />
            <mxPoint x="957" y="195" as="sourcePoint" />
          </mxGeometry>
        </mxCell>
        <mxCell id="D7ioK7h0sEVVlJe2rtMZ-129" value="hire_date" style="text;html=1;align=center;verticalAlign=middle;resizable=0;points=[];autosize=1;strokeColor=none;fillColor=none;shadow=0;" parent="1" vertex="1">
          <mxGeometry x="931.5" y="462" width="70" height="30" as="geometry" />
        </mxCell>
        <mxCell id="D7ioK7h0sEVVlJe2rtMZ-130" value="salary" style="text;html=1;align=center;verticalAlign=middle;resizable=0;points=[];autosize=1;strokeColor=none;fillColor=none;shadow=0;" parent="1" vertex="1">
          <mxGeometry x="1060" y="300" width="60" height="30" as="geometry" />
        </mxCell>
        <mxCell id="D7ioK7h0sEVVlJe2rtMZ-132" style="edgeStyle=none;shape=connector;rounded=0;orthogonalLoop=1;jettySize=auto;html=1;exitX=0.75;exitY=1;exitDx=0;exitDy=0;labelBackgroundColor=default;strokeColor=default;fontFamily=Helvetica;fontSize=11;fontColor=default;startArrow=none;startFill=0;endArrow=oval;endFill=0;startSize=10;endSize=10;entryX=0.032;entryY=0.577;entryDx=0;entryDy=0;entryPerimeter=0;shadow=0;" parent="1" source="D7ioK7h0sEVVlJe2rtMZ-112" edge="1">
          <mxGeometry relative="1" as="geometry">
            <mxPoint x="1061.016" y="210.00199999999995" as="targetPoint" />
            <mxPoint x="1042" y="240" as="sourcePoint" />
          </mxGeometry>
        </mxCell>
        <mxCell id="D7ioK7h0sEVVlJe2rtMZ-134" value="role" style="text;html=1;align=center;verticalAlign=middle;resizable=0;points=[];autosize=1;strokeColor=none;fillColor=none;shadow=0;" parent="1" vertex="1">
          <mxGeometry x="1054" y="178" width="40" height="30" as="geometry" />
        </mxCell>
        <mxCell id="D7ioK7h0sEVVlJe2rtMZ-157" style="edgeStyle=none;shape=connector;rounded=0;orthogonalLoop=1;jettySize=auto;html=1;exitX=0.369;exitY=0.16;exitDx=0;exitDy=0;exitPerimeter=0;labelBackgroundColor=default;strokeColor=default;fontFamily=Helvetica;fontSize=11;fontColor=default;startArrow=none;startFill=0;endArrow=oval;endFill=0;startSize=10;endSize=10;shadow=0;" parent="1" source="D7ioK7h0sEVVlJe2rtMZ-159" edge="1">
          <mxGeometry relative="1" as="geometry">
            <mxPoint x="389.5469543147208" y="590" as="targetPoint" />
          </mxGeometry>
        </mxCell>
        <mxCell id="D7ioK7h0sEVVlJe2rtMZ-158" style="edgeStyle=none;shape=connector;rounded=0;orthogonalLoop=1;jettySize=auto;html=1;exitX=0.167;exitY=0.362;exitDx=0;exitDy=0;exitPerimeter=0;labelBackgroundColor=default;strokeColor=default;fontFamily=Helvetica;fontSize=11;fontColor=default;startArrow=none;startFill=0;endArrow=oval;endFill=0;startSize=10;endSize=10;shadow=0;" parent="1" source="D7ioK7h0sEVVlJe2rtMZ-159" target="D7ioK7h0sEVVlJe2rtMZ-185" edge="1">
          <mxGeometry relative="1" as="geometry">
            <mxPoint x="480" y="600" as="targetPoint" />
          </mxGeometry>
        </mxCell>
        <mxCell id="D7ioK7h0sEVVlJe2rtMZ-159" value="works_on" style="strokeWidth=1;html=1;shape=mxgraph.flowchart.decision;whiteSpace=wrap;fontSize=14;shadow=0;" parent="1" vertex="1">
          <mxGeometry x="380" y="600" width="90" height="90" as="geometry" />
        </mxCell>
        <mxCell id="D7ioK7h0sEVVlJe2rtMZ-181" style="edgeStyle=none;shape=connector;rounded=0;orthogonalLoop=1;jettySize=auto;html=1;labelBackgroundColor=default;strokeColor=default;fontFamily=Helvetica;fontSize=11;fontColor=default;startArrow=none;startFill=0;endArrow=oval;endFill=0;startSize=10;endSize=10;exitX=0.756;exitY=0.261;exitDx=0;exitDy=0;exitPerimeter=0;shadow=0;" parent="1" source="D7ioK7h0sEVVlJe2rtMZ-86" target="D7ioK7h0sEVVlJe2rtMZ-184" edge="1">
          <mxGeometry relative="1" as="geometry">
            <mxPoint x="1090" y="1030" as="targetPoint" />
            <mxPoint x="1249.98" y="1199.98" as="sourcePoint" />
          </mxGeometry>
        </mxCell>
        <mxCell id="D7ioK7h0sEVVlJe2rtMZ-182" style="edgeStyle=none;shape=connector;rounded=0;orthogonalLoop=1;jettySize=auto;html=1;labelBackgroundColor=default;strokeColor=default;fontFamily=Helvetica;fontSize=11;fontColor=default;startArrow=none;startFill=0;endArrow=oval;endFill=0;startSize=10;endSize=10;exitX=0.271;exitY=0.23;exitDx=0;exitDy=0;exitPerimeter=0;shadow=0;" parent="1" source="D7ioK7h0sEVVlJe2rtMZ-86" target="D7ioK7h0sEVVlJe2rtMZ-183" edge="1">
          <mxGeometry relative="1" as="geometry">
            <mxPoint x="1000" y="1030" as="targetPoint" />
            <mxPoint x="1075.04" y="1068.4899999999998" as="sourcePoint" />
          </mxGeometry>
        </mxCell>
        <mxCell id="D7ioK7h0sEVVlJe2rtMZ-183" value="startDate" style="text;html=1;align=center;verticalAlign=middle;resizable=0;points=[];autosize=1;strokeColor=none;fillColor=none;fontSize=11;fontFamily=Helvetica;fontColor=default;shadow=0;" parent="1" vertex="1">
          <mxGeometry x="962" y="1000" width="70" height="30" as="geometry" />
        </mxCell>
        <mxCell id="D7ioK7h0sEVVlJe2rtMZ-184" value="endDate" style="text;html=1;align=center;verticalAlign=middle;resizable=0;points=[];autosize=1;strokeColor=none;fillColor=none;fontSize=11;fontFamily=Helvetica;fontColor=default;shadow=0;" parent="1" vertex="1">
          <mxGeometry x="1055" y="1000" width="70" height="30" as="geometry" />
        </mxCell>
        <mxCell id="D7ioK7h0sEVVlJe2rtMZ-185" value="hire_date" style="text;html=1;strokeColor=none;fillColor=none;align=center;verticalAlign=middle;whiteSpace=wrap;rounded=0;shadow=0;" parent="1" vertex="1">
          <mxGeometry x="280" y="610" width="60" height="30" as="geometry" />
        </mxCell>
        <mxCell id="D7ioK7h0sEVVlJe2rtMZ-187" value="pay" style="text;html=1;strokeColor=none;fillColor=none;align=center;verticalAlign=middle;whiteSpace=wrap;rounded=0;shadow=0;" parent="1" vertex="1">
          <mxGeometry x="360" y="560" width="60" height="30" as="geometry" />
        </mxCell>
        <mxCell id="D7ioK7h0sEVVlJe2rtMZ-188" style="edgeStyle=none;shape=connector;rounded=0;orthogonalLoop=1;jettySize=auto;html=1;exitX=0.247;exitY=0.751;exitDx=0;exitDy=0;exitPerimeter=0;labelBackgroundColor=default;strokeColor=default;fontFamily=Helvetica;fontSize=11;fontColor=default;startArrow=none;startFill=0;endArrow=oval;endFill=0;startSize=10;endSize=10;shadow=0;" parent="1" source="D7ioK7h0sEVVlJe2rtMZ-159" edge="1">
          <mxGeometry relative="1" as="geometry">
            <mxPoint x="370" y="700" as="targetPoint" />
            <mxPoint x="463.1700000000001" y="638.44" as="sourcePoint" />
          </mxGeometry>
        </mxCell>
        <mxCell id="D7ioK7h0sEVVlJe2rtMZ-189" value="expiration" style="text;html=1;strokeColor=none;fillColor=none;align=center;verticalAlign=middle;whiteSpace=wrap;rounded=0;shadow=0;" parent="1" vertex="1">
          <mxGeometry x="340" y="700" width="60" height="30" as="geometry" />
        </mxCell>
        <mxCell id="NTtZs3Ua7um1OWkfzsof-1" value="" style="endArrow=none;html=1;rounded=0;exitX=1;exitY=0.75;exitDx=0;exitDy=0;shadow=0;entryX=0.5;entryY=0;entryDx=0;entryDy=0;entryPerimeter=0;" parent="1" source="D7ioK7h0sEVVlJe2rtMZ-54" edge="1">
          <mxGeometry width="50" height="50" relative="1" as="geometry">
            <mxPoint x="1095" y="400" as="sourcePoint" />
            <mxPoint x="1425" y="589.9999999999998" as="targetPoint" />
            <Array as="points">
              <mxPoint x="1160" y="415" />
              <mxPoint x="1160" y="510" />
              <mxPoint x="1425" y="510" />
            </Array>
          </mxGeometry>
        </mxCell>
        <mxCell id="LuezVCtjhw-IHx6_yhkn-1" value="(0, N)" style="edgeLabel;html=1;align=center;verticalAlign=middle;resizable=0;points=[];fontStyle=1;shadow=0;" parent="NTtZs3Ua7um1OWkfzsof-1" connectable="0" vertex="1">
          <mxGeometry x="-0.8675" relative="1" as="geometry">
            <mxPoint x="-9" as="offset" />
          </mxGeometry>
        </mxCell>
        <mxCell id="LuezVCtjhw-IHx6_yhkn-4" value="N" style="edgeLabel;html=1;align=center;verticalAlign=middle;resizable=0;points=[];shadow=0;" parent="NTtZs3Ua7um1OWkfzsof-1" connectable="0" vertex="1">
          <mxGeometry x="0.9556" y="2" relative="1" as="geometry">
            <mxPoint x="13" y="1" as="offset" />
          </mxGeometry>
        </mxCell>
        <mxCell id="NTtZs3Ua7um1OWkfzsof-3" value="" style="endArrow=none;html=1;rounded=0;entryX=0.5;entryY=1;entryDx=0;entryDy=0;entryPerimeter=0;exitX=0;exitY=0.25;exitDx=0;exitDy=0;shadow=0;" parent="1" source="D7ioK7h0sEVVlJe2rtMZ-30" edge="1">
          <mxGeometry width="50" height="50" relative="1" as="geometry">
            <mxPoint x="1450" y="1050" as="sourcePoint" />
            <mxPoint x="1425" y="679.9999999999998" as="targetPoint" />
            <Array as="points">
              <mxPoint x="1425" y="1053" />
            </Array>
          </mxGeometry>
        </mxCell>
        <mxCell id="LuezVCtjhw-IHx6_yhkn-2" value="(0, N)" style="edgeLabel;html=1;align=center;verticalAlign=middle;resizable=0;points=[];fontStyle=1;shadow=0;" parent="NTtZs3Ua7um1OWkfzsof-3" connectable="0" vertex="1">
          <mxGeometry x="-0.8933" y="1" relative="1" as="geometry">
            <mxPoint y="-2" as="offset" />
          </mxGeometry>
        </mxCell>
        <mxCell id="LuezVCtjhw-IHx6_yhkn-3" value="N" style="edgeLabel;html=1;align=center;verticalAlign=middle;resizable=0;points=[];shadow=0;" parent="NTtZs3Ua7um1OWkfzsof-3" connectable="0" vertex="1">
          <mxGeometry x="0.9144" y="1" relative="1" as="geometry">
            <mxPoint x="16" y="-18" as="offset" />
          </mxGeometry>
        </mxCell>
        <mxCell id="H80W7AnVOPbmwYdEJxk0-12" value="" style="group;shadow=0;" parent="1" vertex="1" connectable="0">
          <mxGeometry x="467.5" y="997.5" width="265" height="162.5" as="geometry" />
        </mxCell>
        <mxCell id="D7ioK7h0sEVVlJe2rtMZ-212" value="&lt;b&gt;project&lt;/b&gt;" style="rounded=0;whiteSpace=wrap;html=1;shadow=0;" parent="H80W7AnVOPbmwYdEJxk0-12" vertex="1">
          <mxGeometry x="75" y="55" width="120" height="60" as="geometry" />
        </mxCell>
        <mxCell id="FRMa7MNBHyELaihu70s4-25" value="CUP" style="text;html=1;align=center;verticalAlign=middle;resizable=0;points=[];autosize=1;strokeColor=none;fillColor=none;fontSize=11;fontFamily=Helvetica;fontColor=default;shadow=0;" parent="H80W7AnVOPbmwYdEJxk0-12" vertex="1">
          <mxGeometry x="42.5" width="50" height="30" as="geometry" />
        </mxCell>
        <mxCell id="FRMa7MNBHyELaihu70s4-26" value="name" style="text;html=1;align=center;verticalAlign=middle;resizable=0;points=[];autosize=1;strokeColor=none;fillColor=none;fontSize=11;fontFamily=Helvetica;fontColor=default;shadow=0;" parent="H80W7AnVOPbmwYdEJxk0-12" vertex="1">
          <mxGeometry x="215" y="115" width="50" height="30" as="geometry" />
        </mxCell>
        <mxCell id="FRMa7MNBHyELaihu70s4-27" value="description" style="text;html=1;align=center;verticalAlign=middle;resizable=0;points=[];autosize=1;strokeColor=none;fillColor=none;fontSize=11;fontFamily=Helvetica;fontColor=default;shadow=0;" parent="H80W7AnVOPbmwYdEJxk0-12" vertex="1">
          <mxGeometry x="172.5" width="80" height="30" as="geometry" />
        </mxCell>
        <mxCell id="FRMa7MNBHyELaihu70s4-28" value="start_date" style="text;html=1;align=center;verticalAlign=middle;resizable=0;points=[];autosize=1;strokeColor=none;fillColor=none;fontSize=11;fontFamily=Helvetica;fontColor=default;shadow=0;" parent="H80W7AnVOPbmwYdEJxk0-12" vertex="1">
          <mxGeometry x="195" y="25" width="70" height="30" as="geometry" />
        </mxCell>
        <mxCell id="FRMa7MNBHyELaihu70s4-29" value="end_date" style="text;html=1;align=center;verticalAlign=middle;resizable=0;points=[];autosize=1;strokeColor=none;fillColor=none;fontSize=11;fontFamily=Helvetica;fontColor=default;shadow=0;" parent="H80W7AnVOPbmwYdEJxk0-12" vertex="1">
          <mxGeometry x="172.5" y="132.5" width="70" height="30" as="geometry" />
        </mxCell>
        <mxCell id="FRMa7MNBHyELaihu70s4-30" value="deadline" style="text;html=1;align=center;verticalAlign=middle;resizable=0;points=[];autosize=1;strokeColor=none;fillColor=none;fontSize=11;fontFamily=Helvetica;fontColor=default;shadow=0;" parent="H80W7AnVOPbmwYdEJxk0-12" vertex="1">
          <mxGeometry x="50" y="130" width="70" height="30" as="geometry" />
        </mxCell>
        <mxCell id="FRMa7MNBHyELaihu70s4-31" value="funds" style="text;html=1;align=center;verticalAlign=middle;resizable=0;points=[];autosize=1;strokeColor=none;fillColor=none;fontSize=11;fontFamily=Helvetica;fontColor=default;shadow=0;" parent="H80W7AnVOPbmwYdEJxk0-12" vertex="1">
          <mxGeometry y="30" width="50" height="30" as="geometry" />
        </mxCell>
        <mxCell id="FRMa7MNBHyELaihu70s4-32" style="edgeStyle=none;shape=connector;rounded=0;orthogonalLoop=1;jettySize=auto;html=1;exitX=0.25;exitY=0;exitDx=0;exitDy=0;entryX=0.656;entryY=1.11;entryDx=0;entryDy=0;entryPerimeter=0;labelBackgroundColor=default;strokeColor=default;fontFamily=Helvetica;fontSize=11;fontColor=default;startArrow=none;startFill=0;endArrow=oval;endFill=0;startSize=10;endSize=10;shadow=0;" parent="H80W7AnVOPbmwYdEJxk0-12" source="D7ioK7h0sEVVlJe2rtMZ-212" target="FRMa7MNBHyELaihu70s4-25" edge="1">
          <mxGeometry relative="1" as="geometry" />
        </mxCell>
        <mxCell id="FRMa7MNBHyELaihu70s4-37" style="edgeStyle=none;shape=connector;rounded=0;orthogonalLoop=1;jettySize=auto;html=1;exitX=1;exitY=0.75;exitDx=0;exitDy=0;entryX=0.52;entryY=0.058;entryDx=0;entryDy=0;entryPerimeter=0;labelBackgroundColor=default;strokeColor=default;fontFamily=Helvetica;fontSize=11;fontColor=default;startArrow=none;startFill=0;endArrow=oval;endFill=0;startSize=10;endSize=10;shadow=0;" parent="H80W7AnVOPbmwYdEJxk0-12" source="D7ioK7h0sEVVlJe2rtMZ-212" target="FRMa7MNBHyELaihu70s4-26" edge="1">
          <mxGeometry relative="1" as="geometry" />
        </mxCell>
        <mxCell id="FRMa7MNBHyELaihu70s4-33" style="edgeStyle=none;shape=connector;rounded=0;orthogonalLoop=1;jettySize=auto;html=1;exitX=0.75;exitY=0;exitDx=0;exitDy=0;entryX=0.313;entryY=1;entryDx=0;entryDy=0;entryPerimeter=0;labelBackgroundColor=default;strokeColor=default;fontFamily=Helvetica;fontSize=11;fontColor=default;startArrow=none;startFill=0;endArrow=oval;endFill=0;startSize=10;endSize=10;shadow=0;" parent="H80W7AnVOPbmwYdEJxk0-12" source="D7ioK7h0sEVVlJe2rtMZ-212" target="FRMa7MNBHyELaihu70s4-27" edge="1">
          <mxGeometry relative="1" as="geometry" />
        </mxCell>
        <mxCell id="FRMa7MNBHyELaihu70s4-34" style="edgeStyle=none;shape=connector;rounded=0;orthogonalLoop=1;jettySize=auto;html=1;exitX=1;exitY=0.25;exitDx=0;exitDy=0;entryX=0.563;entryY=1;entryDx=0;entryDy=0;entryPerimeter=0;labelBackgroundColor=default;strokeColor=default;fontFamily=Helvetica;fontSize=11;fontColor=default;startArrow=none;startFill=0;endArrow=oval;endFill=0;startSize=10;endSize=10;shadow=0;" parent="H80W7AnVOPbmwYdEJxk0-12" source="D7ioK7h0sEVVlJe2rtMZ-212" target="FRMa7MNBHyELaihu70s4-28" edge="1">
          <mxGeometry relative="1" as="geometry" />
        </mxCell>
        <mxCell id="FRMa7MNBHyELaihu70s4-38" style="edgeStyle=none;shape=connector;rounded=0;orthogonalLoop=1;jettySize=auto;html=1;exitX=0.879;exitY=0.997;exitDx=0;exitDy=0;entryX=0.447;entryY=0.052;entryDx=0;entryDy=0;entryPerimeter=0;labelBackgroundColor=default;strokeColor=default;fontFamily=Helvetica;fontSize=11;fontColor=default;startArrow=none;startFill=0;endArrow=oval;endFill=0;startSize=10;endSize=10;exitPerimeter=0;shadow=0;" parent="H80W7AnVOPbmwYdEJxk0-12" source="D7ioK7h0sEVVlJe2rtMZ-212" target="FRMa7MNBHyELaihu70s4-29" edge="1">
          <mxGeometry relative="1" as="geometry" />
        </mxCell>
        <mxCell id="FRMa7MNBHyELaihu70s4-35" style="edgeStyle=none;shape=connector;rounded=0;orthogonalLoop=1;jettySize=auto;html=1;exitX=0.25;exitY=1;exitDx=0;exitDy=0;labelBackgroundColor=default;strokeColor=default;fontFamily=Helvetica;fontSize=11;fontColor=default;startArrow=none;startFill=0;endArrow=oval;endFill=0;startSize=10;endSize=10;shadow=0;" parent="H80W7AnVOPbmwYdEJxk0-12" source="D7ioK7h0sEVVlJe2rtMZ-212" target="FRMa7MNBHyELaihu70s4-30" edge="1">
          <mxGeometry relative="1" as="geometry" />
        </mxCell>
        <mxCell id="FRMa7MNBHyELaihu70s4-36" style="edgeStyle=none;shape=connector;rounded=0;orthogonalLoop=1;jettySize=auto;html=1;exitX=0;exitY=0.25;exitDx=0;exitDy=0;labelBackgroundColor=default;strokeColor=default;fontFamily=Helvetica;fontSize=11;fontColor=default;startArrow=none;startFill=0;endArrow=oval;endFill=0;startSize=10;endSize=10;shadow=0;" parent="H80W7AnVOPbmwYdEJxk0-12" source="D7ioK7h0sEVVlJe2rtMZ-212" target="FRMa7MNBHyELaihu70s4-31" edge="1">
          <mxGeometry relative="1" as="geometry" />
        </mxCell>
        <mxCell id="D7ioK7h0sEVVlJe2rtMZ-28" value="" style="shape=requiredInterface;html=1;verticalLabelPosition=bottom;sketch=0;rotation=-210;shadow=0;" parent="1" vertex="1">
          <mxGeometry x="865" y="580" width="20" height="20" as="geometry" />
        </mxCell>
        <mxCell id="z5Y98NB-X7RU8rsms6oq-7" value="" style="edgeStyle=none;shape=connector;rounded=0;orthogonalLoop=1;jettySize=auto;html=1;entryX=1;entryY=0.5;entryDx=0;entryDy=0;labelBackgroundColor=default;strokeColor=default;fontFamily=Helvetica;fontSize=14;fontColor=default;endArrow=none;exitX=0;exitY=1;exitDx=0;exitDy=0;entryPerimeter=0;shadow=0;" parent="1" source="D7ioK7h0sEVVlJe2rtMZ-15" target="D7ioK7h0sEVVlJe2rtMZ-28" edge="1">
          <mxGeometry relative="1" as="geometry">
            <mxPoint x="1020.8578643762689" y="524.1421356237315" as="sourcePoint" />
            <mxPoint x="765" y="640" as="targetPoint" />
          </mxGeometry>
        </mxCell>
        <mxCell id="D7ioK7h0sEVVlJe2rtMZ-27" value="" style="shape=requiredInterface;html=1;verticalLabelPosition=bottom;sketch=0;rotation=125;shadow=0;" parent="1" vertex="1">
          <mxGeometry x="962" y="600" width="20" height="20" as="geometry" />
        </mxCell>
        <mxCell id="z5Y98NB-X7RU8rsms6oq-9" value="" style="endArrow=none;html=1;rounded=0;exitX=0.5;exitY=1;exitDx=0;exitDy=0;entryX=1;entryY=0.5;entryDx=0;entryDy=0;entryPerimeter=0;shadow=0;" parent="1" source="D7ioK7h0sEVVlJe2rtMZ-15" target="D7ioK7h0sEVVlJe2rtMZ-27" edge="1">
          <mxGeometry width="50" height="50" relative="1" as="geometry">
            <mxPoint x="1035" y="530" as="sourcePoint" />
            <mxPoint x="949" y="640" as="targetPoint" />
          </mxGeometry>
        </mxCell>
        <mxCell id="D7ioK7h0sEVVlJe2rtMZ-29" value="" style="shape=requiredInterface;html=1;verticalLabelPosition=bottom;sketch=0;rotation=55;shadow=0;" parent="1" vertex="1">
          <mxGeometry x="1085" y="600" width="20" height="20" as="geometry" />
        </mxCell>
        <mxCell id="z5Y98NB-X7RU8rsms6oq-11" value="" style="endArrow=none;html=1;rounded=0;entryX=1;entryY=0.5;entryDx=0;entryDy=0;exitX=0.5;exitY=0;exitDx=0;exitDy=0;entryPerimeter=0;shadow=0;" parent="1" source="D7ioK7h0sEVVlJe2rtMZ-7" target="D7ioK7h0sEVVlJe2rtMZ-29" edge="1">
          <mxGeometry width="50" height="50" relative="1" as="geometry">
            <mxPoint x="1118" y="640" as="sourcePoint" />
            <mxPoint x="1035" y="530" as="targetPoint" />
          </mxGeometry>
        </mxCell>
        <mxCell id="D7ioK7h0sEVVlJe2rtMZ-52" value="" style="shape=requiredInterface;html=1;verticalLabelPosition=bottom;sketch=0;rotation=30;shadow=0;" parent="1" vertex="1">
          <mxGeometry x="1190" y="590" width="20" height="20" as="geometry" />
        </mxCell>
        <mxCell id="z5Y98NB-X7RU8rsms6oq-13" value="" style="endArrow=none;html=1;rounded=0;fontSize=14;entryX=1;entryY=0.5;entryDx=0;entryDy=0;exitX=0.5;exitY=0;exitDx=0;exitDy=0;entryPerimeter=0;shadow=0;" parent="1" source="D7ioK7h0sEVVlJe2rtMZ-5" target="D7ioK7h0sEVVlJe2rtMZ-52" edge="1">
          <mxGeometry relative="1" as="geometry">
            <mxPoint x="1270" y="640" as="sourcePoint" />
            <mxPoint x="1049.1421356237306" y="524.1421356237308" as="targetPoint" />
          </mxGeometry>
        </mxCell>
        <mxCell id="IIcQBuRmxiHjHD5Immbp-2" value="" style="shape=requiredInterface;html=1;verticalLabelPosition=bottom;sketch=0;rotation=69;shadow=0;" parent="1" vertex="1">
          <mxGeometry x="1015" y="338" width="20" height="20" as="geometry" />
        </mxCell>
        <mxCell id="cSfvCxF3XQ-pwpSHo0Dq-11" value="&lt;span style=&quot;font-size: 14px;&quot;&gt;have&lt;/span&gt;" style="shape=rhombus;double=1;perimeter=rhombusPerimeter;whiteSpace=wrap;html=1;align=center;fontFamily=Helvetica;fontSize=11;fontColor=default;shadow=0;" parent="1" vertex="1">
          <mxGeometry x="1360" y="350" width="102.5" height="100" as="geometry" />
        </mxCell>
        <mxCell id="cSfvCxF3XQ-pwpSHo0Dq-12" value="" style="endArrow=none;html=1;rounded=0;fontSize=14;exitX=1;exitY=0.5;exitDx=0;exitDy=0;shadow=0;entryX=0;entryY=0.5;entryDx=0;entryDy=0;" parent="1" source="cSfvCxF3XQ-pwpSHo0Dq-11" target="cSfvCxF3XQ-pwpSHo0Dq-20" edge="1">
          <mxGeometry relative="1" as="geometry">
            <mxPoint x="439.5" y="-265" as="sourcePoint" />
            <mxPoint x="1670" y="400" as="targetPoint" />
          </mxGeometry>
        </mxCell>
        <mxCell id="cSfvCxF3XQ-pwpSHo0Dq-13" value="N" style="edgeLabel;html=1;align=center;verticalAlign=middle;resizable=0;points=[];fontStyle=3;shadow=0;" parent="cSfvCxF3XQ-pwpSHo0Dq-12" connectable="0" vertex="1">
          <mxGeometry x="-0.8198" y="2" relative="1" as="geometry">
            <mxPoint x="-15" y="-28" as="offset" />
          </mxGeometry>
        </mxCell>
        <mxCell id="r_9IE34Cr4XoO9rweUjE-5" value="(1, 1)" style="edgeLabel;html=1;align=center;verticalAlign=middle;resizable=0;points=[];" parent="cSfvCxF3XQ-pwpSHo0Dq-12" connectable="0" vertex="1">
          <mxGeometry x="0.6281" y="3" relative="1" as="geometry">
            <mxPoint x="3" y="2" as="offset" />
          </mxGeometry>
        </mxCell>
        <mxCell id="cSfvCxF3XQ-pwpSHo0Dq-14" value="" style="endArrow=none;html=1;rounded=0;exitX=1;exitY=0.5;exitDx=0;exitDy=0;shadow=0;entryX=0;entryY=0.5;entryDx=0;entryDy=0;" parent="1" source="D7ioK7h0sEVVlJe2rtMZ-54" target="cSfvCxF3XQ-pwpSHo0Dq-11" edge="1">
          <mxGeometry width="50" height="50" relative="1" as="geometry">
            <mxPoint x="1690" y="85" as="sourcePoint" />
            <mxPoint x="1300" y="420" as="targetPoint" />
          </mxGeometry>
        </mxCell>
        <mxCell id="cSfvCxF3XQ-pwpSHo0Dq-15" value="(1, N)" style="edgeLabel;html=1;align=center;verticalAlign=middle;resizable=0;points=[];fontStyle=1;shadow=0;" parent="cSfvCxF3XQ-pwpSHo0Dq-14" connectable="0" vertex="1">
          <mxGeometry x="-0.4148" relative="1" as="geometry">
            <mxPoint y="-2" as="offset" />
          </mxGeometry>
        </mxCell>
        <mxCell id="cSfvCxF3XQ-pwpSHo0Dq-16" value="1" style="edgeLabel;html=1;align=center;verticalAlign=middle;resizable=0;points=[];fontStyle=3;shadow=0;" parent="cSfvCxF3XQ-pwpSHo0Dq-14" connectable="0" vertex="1">
          <mxGeometry x="0.5887" y="-1" relative="1" as="geometry">
            <mxPoint x="54" y="-31" as="offset" />
          </mxGeometry>
        </mxCell>
        <mxCell id="r_9IE34Cr4XoO9rweUjE-2" value="" style="group" parent="1" connectable="0" vertex="1">
          <mxGeometry x="1610" y="320" width="155" height="170" as="geometry" />
        </mxCell>
        <mxCell id="cSfvCxF3XQ-pwpSHo0Dq-18" style="edgeStyle=none;shape=connector;rounded=0;orthogonalLoop=1;jettySize=auto;html=1;exitX=0.75;exitY=0;exitDx=0;exitDy=0;labelBackgroundColor=default;strokeColor=default;fontFamily=Helvetica;fontSize=11;fontColor=default;startArrow=none;startFill=0;endArrow=oval;endFill=0;startSize=10;endSize=10;shadow=0;" parent="r_9IE34Cr4XoO9rweUjE-2" source="cSfvCxF3XQ-pwpSHo0Dq-20" edge="1">
          <mxGeometry relative="1" as="geometry">
            <mxPoint x="95" y="20" as="targetPoint" />
          </mxGeometry>
        </mxCell>
        <mxCell id="cSfvCxF3XQ-pwpSHo0Dq-20" value="&lt;span style=&quot;font-size: 12px;&quot;&gt;&lt;b&gt;career_log&lt;/b&gt;&lt;/span&gt;" style="shape=ext;margin=3;double=1;whiteSpace=wrap;html=1;align=center;fontFamily=Helvetica;fontSize=11;fontColor=default;shadow=0;" parent="r_9IE34Cr4XoO9rweUjE-2" vertex="1">
          <mxGeometry x="20" y="60" width="100" height="40" as="geometry" />
        </mxCell>
        <mxCell id="cSfvCxF3XQ-pwpSHo0Dq-24" style="edgeStyle=none;shape=connector;rounded=0;orthogonalLoop=1;jettySize=auto;html=1;exitX=0.25;exitY=1;exitDx=0;exitDy=0;labelBackgroundColor=default;strokeColor=default;fontFamily=Helvetica;fontSize=11;fontColor=default;startArrow=none;startFill=0;endArrow=oval;endFill=0;startSize=10;endSize=10;shadow=0;" parent="r_9IE34Cr4XoO9rweUjE-2" source="cSfvCxF3XQ-pwpSHo0Dq-20" edge="1">
          <mxGeometry relative="1" as="geometry">
            <mxPoint x="45" y="140" as="targetPoint" />
            <mxPoint x="-230" y="-235" as="sourcePoint" />
          </mxGeometry>
        </mxCell>
        <mxCell id="1AtMPg-zmuTjElXzc7me-3" value="ex_role" style="text;html=1;strokeColor=none;fillColor=none;align=center;verticalAlign=middle;whiteSpace=wrap;rounded=0;" parent="r_9IE34Cr4XoO9rweUjE-2" vertex="1">
          <mxGeometry x="10" y="-10" width="60" height="30" as="geometry" />
        </mxCell>
        <mxCell id="1AtMPg-zmuTjElXzc7me-4" value="new_role" style="text;html=1;strokeColor=none;fillColor=none;align=center;verticalAlign=middle;whiteSpace=wrap;rounded=0;" parent="r_9IE34Cr4XoO9rweUjE-2" vertex="1">
          <mxGeometry x="70" y="-10" width="60" height="30" as="geometry" />
        </mxCell>
        <mxCell id="1AtMPg-zmuTjElXzc7me-6" value="new_role_date" style="text;html=1;strokeColor=none;fillColor=none;align=center;verticalAlign=middle;whiteSpace=wrap;rounded=0;" parent="r_9IE34Cr4XoO9rweUjE-2" vertex="1">
          <mxGeometry x="20" y="140" width="60" height="30" as="geometry" />
        </mxCell>
        <mxCell id="1AtMPg-zmuTjElXzc7me-2" style="edgeStyle=none;shape=connector;rounded=0;orthogonalLoop=1;jettySize=auto;html=1;exitX=0.25;exitY=0;exitDx=0;exitDy=0;labelBackgroundColor=default;strokeColor=default;fontFamily=Helvetica;fontSize=11;fontColor=default;startArrow=none;startFill=0;endArrow=oval;endFill=0;startSize=10;endSize=10;shadow=0;" parent="1" source="cSfvCxF3XQ-pwpSHo0Dq-20" edge="1">
          <mxGeometry relative="1" as="geometry">
            <mxPoint x="1645" y="340" as="targetPoint" />
            <mxPoint x="1705" y="390" as="sourcePoint" />
          </mxGeometry>
        </mxCell>
        <mxCell id="XsqJj35AXMpnPqgX_dsb-3" style="edgeStyle=none;shape=connector;rounded=0;orthogonalLoop=1;jettySize=auto;html=1;labelBackgroundColor=default;strokeColor=default;fontFamily=Helvetica;fontSize=11;fontColor=default;startArrow=none;startFill=0;endArrow=oval;endFill=0;startSize=10;endSize=10;exitX=0.744;exitY=0.741;exitDx=0;exitDy=0;exitPerimeter=0;shadow=0;" parent="1" source="z5Y98NB-X7RU8rsms6oq-115" target="XsqJj35AXMpnPqgX_dsb-6" edge="1">
          <mxGeometry relative="1" as="geometry">
            <mxPoint x="1608" y="634.51" as="targetPoint" />
            <mxPoint x="1585.04" y="665.5" as="sourcePoint" />
          </mxGeometry>
        </mxCell>
        <mxCell id="XsqJj35AXMpnPqgX_dsb-4" style="edgeStyle=none;shape=connector;rounded=0;orthogonalLoop=1;jettySize=auto;html=1;labelBackgroundColor=default;strokeColor=default;fontFamily=Helvetica;fontSize=11;fontColor=default;startArrow=none;startFill=0;endArrow=oval;endFill=0;startSize=10;endSize=10;exitX=0.748;exitY=0.248;exitDx=0;exitDy=0;exitPerimeter=0;shadow=0;" parent="1" source="z5Y98NB-X7RU8rsms6oq-115" target="XsqJj35AXMpnPqgX_dsb-5" edge="1">
          <mxGeometry relative="1" as="geometry">
            <mxPoint x="1518" y="634.51" as="targetPoint" />
            <mxPoint x="1541.3899999999999" y="662.71" as="sourcePoint" />
          </mxGeometry>
        </mxCell>
        <mxCell id="XsqJj35AXMpnPqgX_dsb-5" value="start_date" style="text;html=1;align=center;verticalAlign=middle;resizable=0;points=[];autosize=1;strokeColor=none;fillColor=none;fontSize=11;fontFamily=Helvetica;fontColor=default;shadow=0;" parent="1" vertex="1">
          <mxGeometry x="1490" y="575" width="70" height="30" as="geometry" />
        </mxCell>
        <mxCell id="XsqJj35AXMpnPqgX_dsb-6" value="end_date" style="text;html=1;align=center;verticalAlign=middle;resizable=0;points=[];autosize=1;strokeColor=none;fillColor=none;fontSize=11;fontFamily=Helvetica;fontColor=default;shadow=0;" parent="1" vertex="1">
          <mxGeometry x="1490" y="670" width="70" height="30" as="geometry" />
        </mxCell>
        <mxCell id="D7ioK7h0sEVVlJe2rtMZ-34" value="&lt;b&gt;site&lt;/b&gt;" style="rounded=0;whiteSpace=wrap;html=1;shadow=0;" parent="1" vertex="1">
          <mxGeometry x="1690" y="700" width="120" height="60" as="geometry" />
        </mxCell>
        <mxCell id="D7ioK7h0sEVVlJe2rtMZ-137" value="name" style="text;html=1;align=center;verticalAlign=middle;resizable=0;points=[];autosize=1;strokeColor=none;fillColor=none;fontSize=11;fontFamily=Helvetica;fontColor=default;shadow=0;" parent="1" vertex="1">
          <mxGeometry x="1848" y="715" width="50" height="30" as="geometry" />
        </mxCell>
        <mxCell id="baVIKwDW1kuMHDGWcJyg-5" style="edgeStyle=none;shape=connector;rounded=0;orthogonalLoop=1;jettySize=auto;html=1;exitX=1;exitY=0.5;exitDx=0;exitDy=0;shadow=0;labelBackgroundColor=default;strokeColor=default;fontFamily=Helvetica;fontSize=11;fontColor=default;startArrow=none;startFill=0;endArrow=oval;endFill=0;startSize=10;endSize=10;entryX=0.004;entryY=0.5;entryDx=0;entryDy=0;entryPerimeter=0;" parent="1" source="D7ioK7h0sEVVlJe2rtMZ-235" target="baVIKwDW1kuMHDGWcJyg-1" edge="1">
          <mxGeometry relative="1" as="geometry" />
        </mxCell>
        <mxCell id="baVIKwDW1kuMHDGWcJyg-6" style="edgeStyle=none;shape=connector;rounded=0;orthogonalLoop=1;jettySize=auto;html=1;exitX=1;exitY=0.5;exitDx=0;exitDy=0;shadow=0;labelBackgroundColor=default;strokeColor=default;fontFamily=Helvetica;fontSize=11;fontColor=default;startArrow=none;startFill=0;endArrow=oval;endFill=0;startSize=10;endSize=10;entryX=-0.003;entryY=0.5;entryDx=0;entryDy=0;entryPerimeter=0;" parent="1" source="D7ioK7h0sEVVlJe2rtMZ-235" target="baVIKwDW1kuMHDGWcJyg-2" edge="1">
          <mxGeometry relative="1" as="geometry" />
        </mxCell>
        <mxCell id="baVIKwDW1kuMHDGWcJyg-7" style="edgeStyle=none;shape=connector;rounded=0;orthogonalLoop=1;jettySize=auto;html=1;exitX=1;exitY=0.5;exitDx=0;exitDy=0;shadow=0;labelBackgroundColor=default;strokeColor=default;fontFamily=Helvetica;fontSize=11;fontColor=default;startArrow=none;startFill=0;endArrow=oval;endFill=0;startSize=10;endSize=10;entryX=-0.002;entryY=0.506;entryDx=0;entryDy=0;entryPerimeter=0;" parent="1" source="D7ioK7h0sEVVlJe2rtMZ-235" target="baVIKwDW1kuMHDGWcJyg-3" edge="1">
          <mxGeometry relative="1" as="geometry" />
        </mxCell>
        <mxCell id="baVIKwDW1kuMHDGWcJyg-8" style="edgeStyle=none;shape=connector;rounded=0;orthogonalLoop=1;jettySize=auto;html=1;exitX=1;exitY=0.5;exitDx=0;exitDy=0;shadow=0;labelBackgroundColor=default;strokeColor=default;fontFamily=Helvetica;fontSize=11;fontColor=default;startArrow=none;startFill=0;endArrow=oval;endFill=0;startSize=10;endSize=10;entryX=-0.005;entryY=0.53;entryDx=0;entryDy=0;entryPerimeter=0;" parent="1" source="D7ioK7h0sEVVlJe2rtMZ-235" target="baVIKwDW1kuMHDGWcJyg-4" edge="1">
          <mxGeometry relative="1" as="geometry" />
        </mxCell>
        <mxCell id="D7ioK7h0sEVVlJe2rtMZ-235" value="address" style="text;html=1;strokeColor=none;fillColor=none;align=center;verticalAlign=middle;whiteSpace=wrap;rounded=0;shadow=0;" parent="1" vertex="1">
          <mxGeometry x="1828" y="660" width="60" height="30" as="geometry" />
        </mxCell>
        <mxCell id="D7ioK7h0sEVVlJe2rtMZ-140" style="edgeStyle=none;shape=connector;rounded=0;orthogonalLoop=1;jettySize=auto;html=1;exitX=1;exitY=0.75;exitDx=0;exitDy=0;labelBackgroundColor=default;strokeColor=default;fontFamily=Helvetica;fontSize=11;fontColor=default;startArrow=none;startFill=0;endArrow=oval;endFill=0;startSize=10;endSize=10;shadow=0;" parent="1" source="D7ioK7h0sEVVlJe2rtMZ-34" target="D7ioK7h0sEVVlJe2rtMZ-137" edge="1">
          <mxGeometry relative="1" as="geometry">
            <mxPoint x="3750" y="1280" as="sourcePoint" />
            <mxPoint x="3640" y="1325" as="targetPoint" />
          </mxGeometry>
        </mxCell>
        <mxCell id="D7ioK7h0sEVVlJe2rtMZ-139" style="edgeStyle=none;shape=connector;rounded=0;orthogonalLoop=1;jettySize=auto;html=1;exitX=1;exitY=0.25;exitDx=0;exitDy=0;labelBackgroundColor=default;strokeColor=default;fontFamily=Helvetica;fontSize=11;fontColor=default;startArrow=none;startFill=0;endArrow=oval;endFill=0;startSize=10;endSize=10;entryX=0.5;entryY=1;entryDx=0;entryDy=0;shadow=0;" parent="1" source="D7ioK7h0sEVVlJe2rtMZ-34" target="D7ioK7h0sEVVlJe2rtMZ-235" edge="1">
          <mxGeometry relative="1" as="geometry">
            <mxPoint x="3629.1000000000004" y="1273.9" as="targetPoint" />
            <mxPoint x="3750" y="1265" as="sourcePoint" />
          </mxGeometry>
        </mxCell>
        <mxCell id="pp28r0V7C5K9Ym8-gVGB-5" style="edgeStyle=none;shape=connector;rounded=0;orthogonalLoop=1;jettySize=auto;html=1;exitX=0.25;exitY=1;exitDx=0;exitDy=0;entryX=1;entryY=0.5;entryDx=0;entryDy=0;entryPerimeter=0;shadow=0;labelBackgroundColor=default;strokeColor=default;fontFamily=Helvetica;fontSize=11;fontColor=default;endArrow=none;" parent="1" source="D7ioK7h0sEVVlJe2rtMZ-30" target="pp28r0V7C5K9Ym8-gVGB-1" edge="1">
          <mxGeometry relative="1" as="geometry">
            <Array as="points">
              <mxPoint x="1560" y="1215" />
            </Array>
          </mxGeometry>
        </mxCell>
        <mxCell id="pp28r0V7C5K9Ym8-gVGB-7" value="(0, N)" style="edgeLabel;html=1;align=center;verticalAlign=middle;resizable=0;points=[];fontSize=11;fontFamily=Helvetica;fontColor=default;" parent="pp28r0V7C5K9Ym8-gVGB-5" connectable="0" vertex="1">
          <mxGeometry x="-0.787" y="3" relative="1" as="geometry">
            <mxPoint as="offset" />
          </mxGeometry>
        </mxCell>
        <mxCell id="D7ioK7h0sEVVlJe2rtMZ-30" value="&lt;b&gt;laboratory&lt;/b&gt;" style="rounded=0;whiteSpace=wrap;html=1;shadow=0;" parent="1" vertex="1">
          <mxGeometry x="1530" y="1037.5" width="120" height="60" as="geometry" />
        </mxCell>
        <mxCell id="D7ioK7h0sEVVlJe2rtMZ-239" value="topic" style="text;html=1;strokeColor=none;fillColor=none;align=center;verticalAlign=middle;whiteSpace=wrap;rounded=0;shadow=0;" parent="1" vertex="1">
          <mxGeometry x="1590" y="980" width="60" height="30" as="geometry" />
        </mxCell>
        <mxCell id="D7ioK7h0sEVVlJe2rtMZ-243" value="lab_name" style="text;html=1;strokeColor=none;fillColor=none;align=center;verticalAlign=middle;whiteSpace=wrap;rounded=0;shadow=0;" parent="1" vertex="1">
          <mxGeometry x="1670" y="1107.5" width="60" height="20" as="geometry" />
        </mxCell>
        <mxCell id="D7ioK7h0sEVVlJe2rtMZ-238" style="edgeStyle=none;shape=connector;rounded=0;orthogonalLoop=1;jettySize=auto;html=1;exitX=0.75;exitY=0;exitDx=0;exitDy=0;labelBackgroundColor=default;strokeColor=default;fontFamily=Helvetica;fontSize=11;fontColor=default;startArrow=none;startFill=0;endArrow=oval;endFill=0;startSize=10;endSize=10;shadow=0;" parent="1" source="D7ioK7h0sEVVlJe2rtMZ-30" target="D7ioK7h0sEVVlJe2rtMZ-239" edge="1">
          <mxGeometry relative="1" as="geometry">
            <mxPoint x="2150" y="2320" as="sourcePoint" />
            <mxPoint x="2200" y="2280" as="targetPoint" />
          </mxGeometry>
        </mxCell>
        <mxCell id="D7ioK7h0sEVVlJe2rtMZ-242" style="edgeStyle=none;shape=connector;rounded=0;orthogonalLoop=1;jettySize=auto;html=1;exitX=1;exitY=0.75;exitDx=0;exitDy=0;labelBackgroundColor=default;strokeColor=default;fontFamily=Helvetica;fontSize=11;fontColor=default;startArrow=none;startFill=0;endArrow=oval;endFill=0;startSize=10;endSize=10;entryX=0;entryY=0;entryDx=0;entryDy=0;shadow=0;" parent="1" source="D7ioK7h0sEVVlJe2rtMZ-30" target="D7ioK7h0sEVVlJe2rtMZ-243" edge="1">
          <mxGeometry relative="1" as="geometry">
            <mxPoint x="2210" y="2320" as="sourcePoint" />
            <mxPoint x="2280" y="2360" as="targetPoint" />
          </mxGeometry>
        </mxCell>
        <mxCell id="pp28r0V7C5K9Ym8-gVGB-4" style="edgeStyle=none;shape=connector;rounded=0;orthogonalLoop=1;jettySize=auto;html=1;exitX=0;exitY=0.5;exitDx=0;exitDy=0;exitPerimeter=0;entryX=0.674;entryY=1.009;entryDx=0;entryDy=0;shadow=0;labelBackgroundColor=default;strokeColor=default;fontFamily=Helvetica;fontSize=11;fontColor=default;endArrow=none;entryPerimeter=0;" parent="1" source="pp28r0V7C5K9Ym8-gVGB-1" target="D7ioK7h0sEVVlJe2rtMZ-212" edge="1">
          <mxGeometry relative="1" as="geometry">
            <Array as="points">
              <mxPoint x="624" y="1216" />
            </Array>
          </mxGeometry>
        </mxCell>
        <mxCell id="pp28r0V7C5K9Ym8-gVGB-8" value="(0, N)" style="edgeLabel;html=1;align=center;verticalAlign=middle;resizable=0;points=[];fontSize=11;fontFamily=Helvetica;fontColor=default;" parent="pp28r0V7C5K9Ym8-gVGB-4" connectable="0" vertex="1">
          <mxGeometry x="0.5994" y="-3" relative="1" as="geometry">
            <mxPoint y="-49" as="offset" />
          </mxGeometry>
        </mxCell>
        <mxCell id="D7ioK7h0sEVVlJe2rtMZ-41" value="purchase" style="strokeWidth=1;html=1;shape=mxgraph.flowchart.decision;whiteSpace=wrap;fontSize=14;shadow=0;" parent="1" vertex="1">
          <mxGeometry x="695.53" y="1395" width="90" height="90" as="geometry" />
        </mxCell>
        <mxCell id="D7ioK7h0sEVVlJe2rtMZ-166" value="purchase_date" style="text;html=1;align=center;verticalAlign=middle;resizable=0;points=[];autosize=1;strokeColor=none;fillColor=none;fontSize=11;fontFamily=Helvetica;fontColor=default;shadow=0;" parent="1" vertex="1">
          <mxGeometry x="770" y="1500" width="100" height="30" as="geometry" />
        </mxCell>
        <mxCell id="D7ioK7h0sEVVlJe2rtMZ-165" style="edgeStyle=none;shape=connector;rounded=0;orthogonalLoop=1;jettySize=auto;html=1;labelBackgroundColor=default;strokeColor=default;fontFamily=Helvetica;fontSize=11;fontColor=default;startArrow=none;startFill=0;endArrow=oval;endFill=0;startSize=10;endSize=10;exitX=0.757;exitY=0.748;exitDx=0;exitDy=0;exitPerimeter=0;shadow=0;" parent="1" source="D7ioK7h0sEVVlJe2rtMZ-41" target="D7ioK7h0sEVVlJe2rtMZ-166" edge="1">
          <mxGeometry relative="1" as="geometry">
            <mxPoint x="1955.53" y="2805" as="targetPoint" />
            <mxPoint x="2065.53" y="2405" as="sourcePoint" />
          </mxGeometry>
        </mxCell>
        <mxCell id="z5Y98NB-X7RU8rsms6oq-133" value="N" style="edgeLabel;html=1;align=center;verticalAlign=middle;resizable=0;points=[];fontStyle=3;shadow=0;" parent="1" connectable="0" vertex="1">
          <mxGeometry x="724.9964452706197" y="1130.0021779798196" as="geometry">
            <mxPoint x="61" y="281" as="offset" />
          </mxGeometry>
        </mxCell>
        <mxCell id="baVIKwDW1kuMHDGWcJyg-1" value="street" style="text;html=1;align=center;verticalAlign=middle;resizable=0;points=[];autosize=1;strokeColor=none;fillColor=none;" parent="1" vertex="1">
          <mxGeometry x="1940" y="610" width="50" height="30" as="geometry" />
        </mxCell>
        <mxCell id="baVIKwDW1kuMHDGWcJyg-2" value="street_number" style="text;html=1;align=center;verticalAlign=middle;resizable=0;points=[];autosize=1;strokeColor=none;fillColor=none;" parent="1" vertex="1">
          <mxGeometry x="1940" y="640" width="100" height="30" as="geometry" />
        </mxCell>
        <mxCell id="baVIKwDW1kuMHDGWcJyg-3" value="postal_code" style="text;html=1;align=center;verticalAlign=middle;resizable=0;points=[];autosize=1;strokeColor=none;fillColor=none;" parent="1" vertex="1">
          <mxGeometry x="1935" y="670" width="90" height="30" as="geometry" />
        </mxCell>
        <mxCell id="baVIKwDW1kuMHDGWcJyg-4" value="city" style="text;html=1;align=center;verticalAlign=middle;resizable=0;points=[];autosize=1;strokeColor=none;fillColor=none;" parent="1" vertex="1">
          <mxGeometry x="1940" y="690" width="40" height="30" as="geometry" />
        </mxCell>
        <mxCell id="D7ioK7h0sEVVlJe2rtMZ-172" value="&lt;b&gt;equipment&lt;/b&gt;" style="rounded=0;whiteSpace=wrap;html=1;shadow=0;" parent="1" vertex="1">
          <mxGeometry x="992.03" y="1410" width="120" height="60" as="geometry" />
        </mxCell>
        <mxCell id="D7ioK7h0sEVVlJe2rtMZ-176" value="name" style="text;html=1;strokeColor=none;fillColor=none;align=center;verticalAlign=middle;whiteSpace=wrap;rounded=0;fontFamily=Helvetica;fontSize=11;fontColor=default;shadow=0;" parent="1" vertex="1">
          <mxGeometry x="982.03" y="1500" width="60" height="30" as="geometry" />
        </mxCell>
        <mxCell id="D7ioK7h0sEVVlJe2rtMZ-177" value="type" style="text;html=1;strokeColor=none;fillColor=none;align=center;verticalAlign=middle;whiteSpace=wrap;rounded=0;fontFamily=Helvetica;fontSize=11;fontColor=default;shadow=0;" parent="1" vertex="1">
          <mxGeometry x="1030.03" y="1500" width="60" height="30" as="geometry" />
        </mxCell>
        <mxCell id="D7ioK7h0sEVVlJe2rtMZ-178" value="techspecs" style="text;html=1;strokeColor=none;fillColor=none;align=center;verticalAlign=middle;whiteSpace=wrap;rounded=0;fontFamily=Helvetica;fontSize=11;fontColor=default;shadow=0;" parent="1" vertex="1">
          <mxGeometry x="1088.03" y="1500" width="60" height="30" as="geometry" />
        </mxCell>
        <mxCell id="D7ioK7h0sEVVlJe2rtMZ-180" value="code" style="text;html=1;strokeColor=none;fillColor=none;align=center;verticalAlign=middle;whiteSpace=wrap;rounded=0;fontFamily=Helvetica;fontSize=11;fontColor=default;shadow=0;" parent="1" vertex="1">
          <mxGeometry x="980.53" y="1350" width="60" height="30" as="geometry" />
        </mxCell>
        <mxCell id="D7ioK7h0sEVVlJe2rtMZ-167" style="edgeStyle=none;shape=connector;rounded=0;orthogonalLoop=1;jettySize=auto;html=1;exitX=0.25;exitY=1;exitDx=0;exitDy=0;labelBackgroundColor=default;strokeColor=default;fontFamily=Helvetica;fontSize=11;fontColor=default;startArrow=none;startFill=0;endArrow=oval;endFill=0;startSize=10;endSize=10;shadow=0;entryX=0.5;entryY=0;entryDx=0;entryDy=0;" parent="1" source="D7ioK7h0sEVVlJe2rtMZ-172" target="D7ioK7h0sEVVlJe2rtMZ-176" edge="1">
          <mxGeometry relative="1" as="geometry">
            <mxPoint x="1980.53" y="2620" as="targetPoint" />
          </mxGeometry>
        </mxCell>
        <mxCell id="pp28r0V7C5K9Ym8-gVGB-23" style="edgeStyle=none;shape=connector;rounded=0;orthogonalLoop=1;jettySize=auto;html=1;exitX=0.5;exitY=1;exitDx=0;exitDy=0;shadow=0;labelBackgroundColor=default;strokeColor=default;fontFamily=Helvetica;fontSize=11;fontColor=default;startArrow=none;startFill=0;endArrow=oval;endFill=0;startSize=10;endSize=10;entryX=0.5;entryY=0;entryDx=0;entryDy=0;" parent="1" source="D7ioK7h0sEVVlJe2rtMZ-172" target="D7ioK7h0sEVVlJe2rtMZ-177" edge="1">
          <mxGeometry relative="1" as="geometry" />
        </mxCell>
        <mxCell id="D7ioK7h0sEVVlJe2rtMZ-169" style="edgeStyle=none;shape=connector;rounded=0;orthogonalLoop=1;jettySize=auto;html=1;exitX=0.75;exitY=1;exitDx=0;exitDy=0;labelBackgroundColor=default;strokeColor=default;fontFamily=Helvetica;fontSize=11;fontColor=default;startArrow=none;startFill=0;endArrow=oval;endFill=0;startSize=10;endSize=10;shadow=0;" parent="1" source="D7ioK7h0sEVVlJe2rtMZ-172" target="D7ioK7h0sEVVlJe2rtMZ-178" edge="1">
          <mxGeometry relative="1" as="geometry">
            <mxPoint x="2080.5299999999997" y="2625" as="targetPoint" />
          </mxGeometry>
        </mxCell>
        <mxCell id="D7ioK7h0sEVVlJe2rtMZ-171" style="edgeStyle=none;shape=connector;rounded=0;orthogonalLoop=1;jettySize=auto;html=1;exitX=0.25;exitY=0;exitDx=0;exitDy=0;labelBackgroundColor=default;strokeColor=default;fontFamily=Helvetica;fontSize=11;fontColor=default;startArrow=none;startFill=0;endArrow=oval;endFill=0;startSize=10;endSize=10;shadow=0;entryX=0.5;entryY=1;entryDx=0;entryDy=0;" parent="1" source="D7ioK7h0sEVVlJe2rtMZ-172" target="D7ioK7h0sEVVlJe2rtMZ-180" edge="1">
          <mxGeometry relative="1" as="geometry">
            <mxPoint x="1980.53" y="2510" as="targetPoint" />
          </mxGeometry>
        </mxCell>
        <mxCell id="GhU5j1VyjD0hlHlEnvhE-1" value="price" style="text;html=1;align=center;verticalAlign=middle;resizable=0;points=[];autosize=1;strokeColor=none;fillColor=none;fontSize=11;fontFamily=Helvetica;fontColor=default;shadow=0;" parent="1" vertex="1">
          <mxGeometry x="645.53" y="1500" width="50" height="30" as="geometry" />
        </mxCell>
        <mxCell id="GhU5j1VyjD0hlHlEnvhE-2" style="edgeStyle=none;shape=connector;rounded=0;orthogonalLoop=1;jettySize=auto;html=1;labelBackgroundColor=default;strokeColor=default;fontFamily=Helvetica;fontSize=11;fontColor=default;startArrow=none;startFill=0;endArrow=oval;endFill=0;startSize=10;endSize=10;exitX=0.231;exitY=0.737;exitDx=0;exitDy=0;exitPerimeter=0;shadow=0;entryX=0.5;entryY=0;entryDx=0;entryDy=0;entryPerimeter=0;" parent="1" source="D7ioK7h0sEVVlJe2rtMZ-41" target="GhU5j1VyjD0hlHlEnvhE-1" edge="1">
          <mxGeometry relative="1" as="geometry">
            <mxPoint x="813.9578587699316" y="1510" as="targetPoint" />
            <mxPoint x="773.6600000000001" y="1472.32" as="sourcePoint" />
          </mxGeometry>
        </mxCell>
        <mxCell id="pp28r0V7C5K9Ym8-gVGB-13" value="name" style="text;html=1;align=center;verticalAlign=middle;resizable=0;points=[];autosize=1;strokeColor=none;fillColor=none;fontSize=11;fontFamily=Helvetica;fontColor=default;" parent="1" vertex="1">
          <mxGeometry x="925" y="1270" width="50" height="30" as="geometry" />
        </mxCell>
        <mxCell id="pp28r0V7C5K9Ym8-gVGB-14" value="techSpecs" style="text;html=1;align=center;verticalAlign=middle;resizable=0;points=[];autosize=1;strokeColor=none;fillColor=none;fontSize=11;fontFamily=Helvetica;fontColor=default;" parent="1" vertex="1">
          <mxGeometry x="982" y="1290" width="70" height="30" as="geometry" />
        </mxCell>
        <mxCell id="pp28r0V7C5K9Ym8-gVGB-15" value="quantity" style="text;html=1;align=center;verticalAlign=middle;resizable=0;points=[];autosize=1;strokeColor=none;fillColor=none;fontSize=11;fontFamily=Helvetica;fontColor=default;" parent="1" vertex="1">
          <mxGeometry x="1065" y="1280" width="60" height="30" as="geometry" />
        </mxCell>
        <mxCell id="pp28r0V7C5K9Ym8-gVGB-17" value="" style="group" parent="1" connectable="0" vertex="1">
          <mxGeometry x="999" y="1170" width="90" height="90" as="geometry" />
        </mxCell>
        <mxCell id="pp28r0V7C5K9Ym8-gVGB-1" value="&lt;font style=&quot;font-size: 9px;&quot;&gt;equipment_request&lt;/font&gt;" style="strokeWidth=1;html=1;shape=mxgraph.flowchart.decision;whiteSpace=wrap;fontSize=14;shadow=0;" parent="pp28r0V7C5K9Ym8-gVGB-17" vertex="1">
          <mxGeometry width="90" height="90" as="geometry" />
        </mxCell>
        <mxCell id="pp28r0V7C5K9Ym8-gVGB-11" value="N" style="edgeLabel;html=1;align=center;verticalAlign=middle;resizable=0;points=[];fontStyle=3;shadow=0;" parent="pp28r0V7C5K9Ym8-gVGB-17" connectable="0" vertex="1">
          <mxGeometry x="86.0021739130434" y="20" as="geometry" />
        </mxCell>
        <mxCell id="pp28r0V7C5K9Ym8-gVGB-16" value="N" style="edgeLabel;html=1;align=center;verticalAlign=middle;resizable=0;points=[];fontStyle=3;shadow=0;" parent="pp28r0V7C5K9Ym8-gVGB-17" connectable="0" vertex="1">
          <mxGeometry x="3.002173913043407" y="20" as="geometry" />
        </mxCell>
        <mxCell id="pp28r0V7C5K9Ym8-gVGB-18" style="edgeStyle=none;shape=connector;rounded=0;orthogonalLoop=1;jettySize=auto;html=1;exitX=0.132;exitY=0.633;exitDx=0;exitDy=0;exitPerimeter=0;shadow=0;labelBackgroundColor=default;strokeColor=default;fontFamily=Helvetica;fontSize=11;fontColor=default;startArrow=none;startFill=0;endArrow=oval;endFill=0;startSize=10;endSize=10;" parent="1" source="pp28r0V7C5K9Ym8-gVGB-1" target="pp28r0V7C5K9Ym8-gVGB-13" edge="1">
          <mxGeometry relative="1" as="geometry" />
        </mxCell>
        <mxCell id="pp28r0V7C5K9Ym8-gVGB-19" style="edgeStyle=none;shape=connector;rounded=0;orthogonalLoop=1;jettySize=auto;html=1;exitX=0.295;exitY=0.799;exitDx=0;exitDy=0;exitPerimeter=0;shadow=0;labelBackgroundColor=default;strokeColor=default;fontFamily=Helvetica;fontSize=11;fontColor=default;startArrow=none;startFill=0;endArrow=oval;endFill=0;startSize=10;endSize=10;" parent="1" source="pp28r0V7C5K9Ym8-gVGB-1" target="pp28r0V7C5K9Ym8-gVGB-14" edge="1">
          <mxGeometry relative="1" as="geometry" />
        </mxCell>
        <mxCell id="pp28r0V7C5K9Ym8-gVGB-20" style="edgeStyle=none;shape=connector;rounded=0;orthogonalLoop=1;jettySize=auto;html=1;exitX=0.75;exitY=0.751;exitDx=0;exitDy=0;exitPerimeter=0;shadow=0;labelBackgroundColor=default;strokeColor=default;fontFamily=Helvetica;fontSize=11;fontColor=default;startArrow=none;startFill=0;endArrow=oval;endFill=0;startSize=10;endSize=10;" parent="1" source="pp28r0V7C5K9Ym8-gVGB-1" target="pp28r0V7C5K9Ym8-gVGB-15" edge="1">
          <mxGeometry relative="1" as="geometry" />
        </mxCell>
        <mxCell id="ATHoA4f1VxyFGLs15sUG-1" value="type" style="text;html=1;align=center;verticalAlign=middle;resizable=0;points=[];autosize=1;strokeColor=none;fillColor=none;fontSize=11;fontFamily=Helvetica;fontColor=default;" parent="1" vertex="1">
          <mxGeometry x="1122.03" y="1240" width="40" height="30" as="geometry" />
        </mxCell>
        <mxCell id="ATHoA4f1VxyFGLs15sUG-2" style="edgeStyle=none;shape=connector;rounded=0;orthogonalLoop=1;jettySize=auto;html=1;exitX=0.866;exitY=0.641;exitDx=0;exitDy=0;exitPerimeter=0;shadow=0;labelBackgroundColor=default;strokeColor=default;fontFamily=Helvetica;fontSize=11;fontColor=default;startArrow=none;startFill=0;endArrow=oval;endFill=0;startSize=10;endSize=10;" parent="1" source="pp28r0V7C5K9Ym8-gVGB-1" target="ATHoA4f1VxyFGLs15sUG-1" edge="1">
          <mxGeometry relative="1" as="geometry">
            <mxPoint x="1076.5" y="1247.59" as="sourcePoint" />
            <mxPoint x="1097.5535620971957" y="1290" as="targetPoint" />
          </mxGeometry>
        </mxCell>
      </root>
    </mxGraphModel>
  </diagram>
</mxfile>
